<svg id="TITLE" xmlns="http://www.w3.org/2000/svg" width="814.688" height="188.219" viewBox="0 0 814.688 188.219">
  <defs>
    <style>
      .cls-1 {
        fill: #d6d1cc;
        mix-blend-mode: multiply;
      }

      .cls-1, .cls-2 {
        fill-rule: evenodd;
      }

      .cls-2 {
        fill: #222;
      }
    </style>
  </defs>
  <g id="H1">
    <path id="Designer_Dong_gri" data-name="Designer Dong—gri" class="cls-1" d="M-0.175,63.592a3.637,3.637,0,0,0,3.553,3.645H21.965c20.045,0,33.894-13.94,33.894-31.889V35.165c0-17.949-13.849-31.707-33.894-31.707H3.378A3.637,3.637,0,0,0-.175,7.1V63.592Zm7.2-3.007V10.109H21.965c16.127,0,26.423,11.116,26.423,25.238V35.53c0,14.122-10.3,25.056-26.423,25.056H7.023Zm63.411-19.5c0.911-9.2,7.107-16.036,15.307-16.036,9.385,0,14.3,7.471,15.033,16.036H70.434ZM104.6,61.223a2.98,2.98,0,0,0-2-5.285,3.075,3.075,0,0,0-2,.82,19.253,19.253,0,0,1-13.576,5.467c-8.382,0-15.58-5.74-16.582-15.945H104.51A3.266,3.266,0,0,0,107.79,43c0-12.482-7.927-23.871-21.867-23.871-13.029,0-22.6,10.933-22.6,24.509v0.182C63.327,58.4,73.9,68.33,86.834,68.33A23.947,23.947,0,0,0,104.6,61.223Zm27.513,6.924c9.385,0,16.765-5.193,16.765-14.122V53.843c0-8.473-7.836-11.3-15.125-13.485-6.286-1.913-12.117-3.644-12.117-8.109V32.067c0-3.918,3.553-6.833,9.111-6.833a25.494,25.494,0,0,1,12.3,3.644,3.52,3.52,0,0,0,1.549.364,3.054,3.054,0,0,0,3.1-3.007,3.4,3.4,0,0,0-1.732-2.916,32.812,32.812,0,0,0-15.033-4.009c-9.293,0-16.036,5.376-16.036,13.485v0.182c0,8.656,8.2,11.207,15.58,13.3,6.2,1.731,11.754,3.553,11.754,8.291v0.182c0,4.556-4.1,7.471-9.749,7.471a26.462,26.462,0,0,1-14.942-5.011,2.807,2.807,0,0,0-1.732-.547,3.053,3.053,0,0,0-3.1,3.007,3.167,3.167,0,0,0,1.275,2.551A32.594,32.594,0,0,0,132.114,68.148ZM158.261,6.556a3.844,3.844,0,0,0,4.1,3.736c2.369,0,4.191-1.549,4.191-3.736V5.371c0-2.278-1.822-3.736-4.191-3.736a3.789,3.789,0,0,0-4.1,3.736V6.556ZM158.9,64.139a3.5,3.5,0,0,0,3.554,3.553,3.426,3.426,0,0,0,3.462-3.553V23.229a3.5,3.5,0,0,0-3.553-3.553,3.54,3.54,0,0,0-3.463,3.553V64.139ZM199.441,82c7.471,0,13.758-2.1,17.949-6.287,3.827-3.827,6.014-9.385,6.014-16.674V23.229a3.558,3.558,0,0,0-3.554-3.553,3.481,3.481,0,0,0-3.462,3.553v5.376c-3.827-5.1-9.567-9.476-18.4-9.476-11.206,0-22.14,8.473-22.14,22.231v0.182c0,13.576,10.843,22.049,22.14,22.049,8.656,0,14.4-4.465,18.5-9.931v5.558c0,11.025-6.742,16.765-17.129,16.765a29.747,29.747,0,0,1-16.673-5.1,2.827,2.827,0,0,0-1.549-.456,3.345,3.345,0,0,0-3.189,3.1,3.247,3.247,0,0,0,1.822,2.916A36.889,36.889,0,0,0,199.441,82ZM199.35,57.4c-8.747,0-16.309-6.56-16.309-16.036V41.179c0-9.658,7.38-15.853,16.309-15.853s17.311,6.287,17.311,15.945v0.182C216.661,50.927,208.279,57.4,199.35,57.4Zm36.077,6.742a3.5,3.5,0,0,0,3.553,3.553,3.426,3.426,0,0,0,3.463-3.553V40.267c0-8.838,6.013-14.76,14.122-14.76,8.291,0,13.029,5.467,13.029,14.214V64.139a3.508,3.508,0,1,0,7.016,0V37.99c0-11.207-6.652-18.86-18.041-18.86-8.109,0-13.029,4.1-16.126,9.2v-5.1a3.5,3.5,0,0,0-3.554-3.553,3.54,3.54,0,0,0-3.462,3.553V64.139ZM292.1,41.087c0.911-9.2,7.107-16.036,15.307-16.036,9.385,0,14.305,7.471,15.034,16.036H292.1Zm34.167,20.136a2.98,2.98,0,0,0-2-5.285,3.075,3.075,0,0,0-2,.82,19.251,19.251,0,0,1-13.575,5.467c-8.383,0-15.58-5.74-16.583-15.945h34.076a3.266,3.266,0,0,0,3.28-3.28c0-12.482-7.927-23.871-21.867-23.871-13.029,0-22.595,10.933-22.595,24.509v0.182c0,14.578,10.569,24.509,23.506,24.509A23.946,23.946,0,0,0,326.263,61.223ZM338.2,64.139a3.508,3.508,0,1,0,7.015,0V48.1c0-13.576,7.471-20.409,16.583-21.5a3.481,3.481,0,0,0,3.1-3.553,3.373,3.373,0,0,0-3.462-3.553c-5.922,0-12.755,4.738-16.218,12.574V23.229a3.5,3.5,0,0,0-3.553-3.553,3.54,3.54,0,0,0-3.462,3.553V64.139Zm56.759-3.918a6.961,6.961,0,0,0,7.016,7.016H419.83c20.044,0,33.893-13.94,33.893-31.889V35.165c0-17.949-13.849-31.707-33.893-31.707H401.972a6.961,6.961,0,0,0-7.016,7.016V60.221Zm14.031-5.649V16.123H419.83c11.48,0,19.224,7.927,19.224,19.225V35.53c0,11.3-7.744,19.042-19.224,19.042H408.987ZM485.063,68.33c15.216,0,26.514-11.389,26.514-25.42V42.727c0-14.031-11.207-25.238-26.332-25.238-15.216,0-26.513,11.389-26.513,25.42v0.182C458.732,57.123,469.938,68.33,485.063,68.33Zm0.182-11.936c-7.653,0-12.847-6.287-12.847-13.485V42.727c0-7.2,4.738-13.3,12.665-13.3,7.653,0,12.847,6.287,12.847,13.485v0.182C497.91,50.29,493.172,56.394,485.245,56.394Zm32.706,4.465a6.925,6.925,0,1,0,13.849,0V39.994c0-6.56,3.371-9.931,8.656-9.931s8.382,3.371,8.382,9.931V60.859a6.925,6.925,0,1,0,13.849,0V35.621c0-11.207-6.105-18.131-16.582-18.131-7.016,0-11.116,3.736-14.305,7.836V24.778a6.925,6.925,0,1,0-13.849,0v36.08ZM592.933,82c9.475,0,16.491-2,21.047-6.56,4.1-4.1,6.195-10.478,6.195-19.225V24.778a6.925,6.925,0,0,0-13.849-.091v0.091c-3.735-4.1-8.2-7.289-15.762-7.289-11.207,0-21.685,8.2-21.685,22.778V40.45c0,14.487,10.3,22.778,21.685,22.778,7.38,0,11.844-3.007,15.944-7.927V57.67c0,8.747-4.464,13.3-13.94,13.3a31.559,31.559,0,0,1-13.484-2.915,5.659,5.659,0,1,0-4.009,10.569A46.822,46.822,0,0,0,592.933,82Zm1.64-30.249c-6.742,0-11.845-4.556-11.845-11.3V40.267c0-6.651,5.1-11.3,11.845-11.3s11.935,4.647,11.935,11.3V40.45C606.508,47.1,601.315,51.747,594.573,51.747ZM633.2,45.461h60.863a6.469,6.469,0,1,0,0-12.938H633.2A6.469,6.469,0,1,0,633.2,45.461ZM728.956,82c9.476,0,16.491-2,21.047-6.56,4.1-4.1,6.2-10.478,6.2-19.225V24.778a6.925,6.925,0,0,0-13.849-.091v0.091c-3.736-4.1-8.2-7.289-15.763-7.289-11.207,0-21.684,8.2-21.684,22.778V40.45c0,14.487,10.295,22.778,21.684,22.778,7.38,0,11.845-3.007,15.945-7.927V57.67c0,8.747-4.465,13.3-13.94,13.3a31.56,31.56,0,0,1-13.485-2.915A5.659,5.659,0,1,0,711.1,78.625,46.822,46.822,0,0,0,728.956,82Zm1.64-30.249c-6.742,0-11.844-4.556-11.844-11.3V40.267c0-6.651,5.1-11.3,11.844-11.3s11.936,4.647,11.936,11.3V40.45C742.532,47.1,737.338,51.747,730.6,51.747Zm34.346,9.111a6.925,6.925,0,1,0,13.849,0V47.921c0-9.84,3.918-15.216,10.933-16.856a6.37,6.37,0,0,0,5.194-6.469c0-3.918-2.46-6.742-6.742-6.742-4.1,0-7.38,4.373-9.385,9.111V24.778a6.924,6.924,0,1,0-13.849,0v36.08ZM799.2,6.92c0,4.009,3.371,6.56,7.744,6.56s7.745-2.551,7.745-6.56V6.738c0-4.009-3.371-6.469-7.745-6.469S799.2,2.729,799.2,6.738V6.92Zm0.82,53.938a6.925,6.925,0,1,0,13.849,0V24.778a6.924,6.924,0,1,0-13.849,0v36.08Z" transform="translate(0 -0.281)"/>
    <path id="디자이너_이동규" data-name="디자이너 이동규" class="cls-2" d="M696.976,188.23a3.667,3.667,0,0,1-3.875-3.606v-0.085a3.885,3.885,0,0,1,7.75,0v0.085A3.667,3.667,0,0,1,696.976,188.23Zm-9.447-9.376H674.121c0.669,2.927,2.807,4.454,5.836,4.454a8.071,8.071,0,0,0,4.81-1.527,2.612,2.612,0,0,1,1.648-.509,2.526,2.526,0,0,1,2.628,2.546,2.482,2.482,0,0,1-.891,1.909,12.75,12.75,0,0,1-8.285,2.758c-7.171,0-12.471-4.8-12.471-11.753v-0.085a11.582,11.582,0,0,1,11.8-11.837,11,11,0,0,1,11.492,10.946A3.015,3.015,0,0,1,687.529,178.854Zm-8.33-8.868c-2.806,0-4.632,1.909-5.167,4.837h10.2C683.832,171.938,682.05,169.986,679.2,169.986ZM656.345,188.4a17.241,17.241,0,0,1-9-2.588,2.542,2.542,0,0,1,1.381-4.752,2.7,2.7,0,0,1,1.336.339,13.007,13.007,0,0,0,6.459,2.037c1.959,0,2.85-.679,2.85-1.7v-0.085c0-1.4-2.316-1.867-4.944-2.631-3.341-.933-7.127-2.418-7.127-6.831v-0.084c0-4.625,3.92-7.213,8.731-7.213a17.468,17.468,0,0,1,7.394,1.739,2.58,2.58,0,0,1-1.114,4.964,2.558,2.558,0,0,1-1.247-.3,13.229,13.229,0,0,0-5.167-1.442c-1.648,0-2.494.679-2.494,1.57v0.085c0,1.272,2.271,1.866,4.855,2.715,3.34,1.061,7.216,2.588,7.216,6.746v0.085C665.477,186.109,661.512,188.4,656.345,188.4ZM637.9,178.981v6.025a3.39,3.39,0,0,1-6.771,0V168.2a3.39,3.39,0,0,1,6.771,0v1.019c0.98-2.207,2.583-4.243,4.588-4.243a3.1,3.1,0,0,1,.757,6.152C639.817,171.9,637.9,174.4,637.9,178.981Zm-13.323-.127H611.172c0.668,2.927,2.806,4.454,5.835,4.454a8.072,8.072,0,0,0,4.811-1.527,2.612,2.612,0,0,1,1.648-.509,2.527,2.527,0,0,1,2.628,2.546,2.482,2.482,0,0,1-.891,1.909,12.754,12.754,0,0,1-8.285,2.758c-7.171,0-12.472-4.8-12.472-11.753v-0.085a11.582,11.582,0,0,1,11.8-11.837,11,11,0,0,1,11.492,10.946A3.016,3.016,0,0,1,624.579,178.854Zm-8.329-8.868c-2.806,0-4.633,1.909-5.167,4.837h10.2C620.882,171.938,619.1,169.986,616.25,169.986Zm-20.182,15.656a4.185,4.185,0,0,1-3.831,2.8h-0.356a4.124,4.124,0,0,1-3.831-2.8l-7.3-16.08a4.116,4.116,0,0,1-.356-1.57,3.4,3.4,0,0,1,6.592-.721l5.122,13.2,5.212-13.28a3.262,3.262,0,0,1,3.162-2.206,3.133,3.133,0,0,1,3.252,3.055,4.342,4.342,0,0,1-.357,1.527Zm-22.05-22.7c-2.138,0-3.787-1.188-3.787-3.054V159.8c0-1.867,1.649-3.013,3.787-3.013s3.786,1.146,3.786,3.013v0.085C577.8,161.755,576.156,162.943,574.018,162.943ZM562.833,188.23a3.306,3.306,0,0,1-3.385-3.224V175.29c0-3.055-1.514-4.625-4.1-4.625s-4.231,1.57-4.231,4.625v9.716a3.39,3.39,0,0,1-6.771,0V168.2a3.39,3.39,0,0,1,6.771,0v0.255a8.548,8.548,0,0,1,6.993-3.649c5.122,0,8.106,3.225,8.106,8.443v11.753A3.306,3.306,0,0,1,562.833,188.23Zm-26.15,0a3.306,3.306,0,0,1-3.385-3.224v-0.255A8.55,8.55,0,0,1,526.3,188.4c-5.122,0-8.106-3.225-8.106-8.443V168.2a3.389,3.389,0,0,1,6.77,0v9.716c0,3.055,1.515,4.625,4.1,4.625s4.232-1.57,4.232-4.625V168.2a3.389,3.389,0,0,1,6.77,0v16.8A3.307,3.307,0,0,1,536.683,188.23Zm-32.03-59.146c-7.394,0-12.873-5.219-12.873-11.753v-0.084c0-6.534,5.524-11.838,12.962-11.838,7.394,0,12.873,5.219,12.873,11.753v0.085C517.615,123.78,512.092,129.084,504.653,129.084Zm6.281-11.837a6.181,6.181,0,0,0-6.281-6.28,5.958,5.958,0,0,0-6.191,6.2v0.085a6.18,6.18,0,0,0,6.28,6.279,5.959,5.959,0,0,0,6.192-6.195v-0.084Zm-23.165-5.9h-2.984v9.716a1.911,1.911,0,0,0,2.182,2.206c0.223,0,.668-0.042.8-0.042a2.759,2.759,0,0,1,2.806,2.673,2.632,2.632,0,0,1-1.737,2.418,10.429,10.429,0,0,1-3.875.637c-4.143,0-6.949-1.57-6.949-6.831V111.349h-0.223a2.761,2.761,0,1,1,0-5.515h0.223v-2.843a3.39,3.39,0,0,1,6.771,0v2.843h2.984A2.761,2.761,0,1,1,487.769,111.349Zm-10.605,73.657a3.389,3.389,0,0,1-6.77,0V175.29c0-3.055-1.515-4.625-4.1-4.625s-4.232,1.57-4.232,4.625v9.716a3.389,3.389,0,0,1-6.77,0V159.973a3.389,3.389,0,0,1,6.77,0v8.486a8.549,8.549,0,0,1,6.993-3.649c5.123,0,8.107,3.225,8.107,8.443v11.753ZM455.248,119.58v6.025a3.389,3.389,0,0,1-6.77,0V108.8a3.389,3.389,0,0,1,6.77,0v1.018c0.98-2.206,2.584-4.243,4.588-4.243a3.1,3.1,0,0,1,.757,6.152C457.164,112.5,455.248,115,455.248,119.58Zm-2.9,48.412a2.823,2.823,0,0,1-2.895,2.758h-2.984v9.716a1.911,1.911,0,0,0,2.182,2.206c0.223,0,.668-0.042.8-0.042a2.759,2.759,0,0,1,2.806,2.673,2.633,2.633,0,0,1-1.737,2.418,10.429,10.429,0,0,1-3.875.636c-4.143,0-6.949-1.57-6.949-6.831V170.75h-0.222a2.761,2.761,0,1,1,0-5.516H439.7v-2.842a3.389,3.389,0,0,1,6.771,0v2.842h2.984A2.823,2.823,0,0,1,452.351,167.992Zm-10.425-48.539H428.519c0.668,2.927,2.806,4.455,5.835,4.455a8.072,8.072,0,0,0,4.81-1.528,2.614,2.614,0,0,1,1.648-.509,2.526,2.526,0,0,1,2.628,2.546,2.482,2.482,0,0,1-.891,1.909,12.75,12.75,0,0,1-8.284,2.758c-7.172,0-12.472-4.794-12.472-11.753v-0.084a11.582,11.582,0,0,1,11.8-11.838,11,11,0,0,1,11.492,10.947A3.015,3.015,0,0,1,441.926,119.453Zm-8.33-8.868c-2.806,0-4.632,1.91-5.166,4.837h10.2C438.229,112.537,436.447,110.585,433.6,110.585Zm-18.132,18.244a3.306,3.306,0,0,1-3.386-3.224v-9.716c0-3.055-1.514-4.625-4.1-4.625s-4.231,1.57-4.231,4.625v9.716a3.389,3.389,0,0,1-6.77,0V108.8a3.389,3.389,0,0,1,6.77,0v0.254a8.548,8.548,0,0,1,6.993-3.649c5.122,0,8.107,3.225,8.107,8.443v11.753A3.306,3.306,0,0,1,415.464,128.829Zm-22.406,34.114c-2.138,0-3.786-1.188-3.786-3.054V159.8c0-1.867,1.648-3.013,3.786-3.013s3.786,1.146,3.786,3.013v0.085C396.844,161.755,395.2,162.943,393.058,162.943Zm-13.678-27.5a23.89,23.89,0,0,1-8.731-1.57,2.651,2.651,0,0,1-1.915-2.5,2.712,2.712,0,0,1,2.762-2.631,2.854,2.854,0,0,1,1.113.213,16.089,16.089,0,0,0,6.592,1.357c4.633,0,6.815-2.121,6.815-6.194v-1.1a9.5,9.5,0,0,1-7.794,3.691c-5.568,0-10.6-3.861-10.6-10.607v-0.085c0-6.788,5.123-10.607,10.6-10.607a9.853,9.853,0,0,1,7.705,3.395v-0.043a3.391,3.391,0,0,1,6.771.043v14.637c0,4.073-1.025,7.043-3.029,8.952C387.442,134.515,384.012,135.448,379.38,135.448Zm6.636-19.432c0-3.1-2.539-5.261-5.835-5.261s-5.79,2.164-5.79,5.261V116.1c0,3.14,2.494,5.261,5.79,5.261s5.835-2.164,5.835-5.261v-0.085Zm-17.06,49.218h2.985a2.761,2.761,0,1,1,0,5.516h-2.985v9.716a1.912,1.912,0,0,0,2.183,2.206c0.223,0,.668-0.042.8-0.042a2.759,2.759,0,0,1,2.806,2.673,2.633,2.633,0,0,1-1.737,2.418,10.432,10.432,0,0,1-3.875.636c-4.143,0-6.949-1.57-6.949-6.831V170.75h-0.223a2.761,2.761,0,1,1,0-5.516h0.223v-2.842a3.389,3.389,0,0,1,6.77,0v2.842Zm-8.241-61.691c-2.138,0-3.786-1.188-3.786-3.055V100.4c0-1.867,1.648-3.012,3.786-3.012s3.786,1.145,3.786,3.012v0.085C364.5,102.355,362.853,103.543,360.715,103.543ZM344.809,129a17.241,17.241,0,0,1-9-2.588,2.542,2.542,0,0,1,1.381-4.752,2.7,2.7,0,0,1,1.336.339,13.007,13.007,0,0,0,6.459,2.037c1.959,0,2.85-.679,2.85-1.7v-0.085c0-1.4-2.316-1.867-4.944-2.63-3.341-.934-7.127-2.419-7.127-6.831v-0.085c0-4.625,3.92-7.213,8.731-7.213a17.469,17.469,0,0,1,7.394,1.74,2.58,2.58,0,0,1-1.114,4.964,2.569,2.569,0,0,1-1.247-.3,13.216,13.216,0,0,0-5.167-1.443c-1.648,0-2.494.679-2.494,1.57v0.085c0,1.273,2.271,1.867,4.855,2.715,3.34,1.061,7.216,2.588,7.216,6.746v0.085C353.941,126.708,349.976,129,344.809,129Zm-14.926-9.546H316.476c0.668,2.927,2.806,4.455,5.835,4.455a8.072,8.072,0,0,0,4.811-1.528,2.612,2.612,0,0,1,1.648-.509,2.527,2.527,0,0,1,2.628,2.546,2.482,2.482,0,0,1-.891,1.909,12.75,12.75,0,0,1-8.285,2.758c-7.171,0-12.472-4.794-12.472-11.753v-0.084a11.582,11.582,0,0,1,11.8-11.838,11,11,0,0,1,11.492,10.947A3.015,3.015,0,0,1,329.883,119.453Zm-8.329-8.868c-2.806,0-4.632,1.91-5.167,4.837h10.2C326.186,112.537,324.4,110.585,321.554,110.585Zm-1.335,54.225a11,11,0,0,1,11.492,10.946,3.016,3.016,0,0,1-3.163,3.1H315.141c0.668,2.927,2.806,4.454,5.835,4.454a8.066,8.066,0,0,0,4.81-1.527,2.614,2.614,0,0,1,1.648-.509,2.526,2.526,0,0,1,2.628,2.546,2.481,2.481,0,0,1-.89,1.909,12.754,12.754,0,0,1-8.285,2.758c-7.172,0-12.472-4.8-12.472-11.753v-0.085A11.582,11.582,0,0,1,320.219,164.81Zm5.033,10.013c-0.4-2.885-2.183-4.837-5.033-4.837-2.807,0-4.633,1.909-5.167,4.837h10.2Zm-22.01-45.994a3.306,3.306,0,0,1-3.385-3.224v-0.3A8.893,8.893,0,0,1,292.419,129c-5.568,0-10.869-4.158-10.869-11.752v-0.085c0-7.6,5.212-11.753,10.869-11.753a9.33,9.33,0,0,1,7.438,3.395v-8.231a3.389,3.389,0,0,1,6.771,0v25.032A3.306,3.306,0,0,1,303.242,128.829Zm-3.3-11.667c0-3.776-2.628-6.28-5.79-6.28s-5.835,2.461-5.835,6.28v0.085c0,3.776,2.672,6.279,5.835,6.279s5.79-2.5,5.79-6.279v-0.085Zm-8.863,47.648a9.336,9.336,0,0,1,7.439,3.394v-8.231a3.389,3.389,0,0,1,6.77,0v25.033a3.389,3.389,0,0,1-6.77,0v-0.3a8.9,8.9,0,0,1-7.439,3.691c-5.568,0-10.868-4.158-10.868-11.753v-0.085C280.215,168.968,285.426,164.81,291.083,164.81Zm-4.1,11.837a5.919,5.919,0,0,0,5.835,6.28c3.163,0,5.791-2.5,5.791-6.28v-0.085c0-3.776-2.628-6.279-5.791-6.279s-5.835,2.461-5.835,6.279v0.085ZM267.648,54.489h-4.7v8.023a0.79,0.79,0,0,1-.351.726,1.456,1.456,0,0,1-.787.219,1.564,1.564,0,0,1-.823-0.219,0.782,0.782,0,0,1-.363-0.726V54.489h-4.6v8.023a0.782,0.782,0,0,1-.363.726,1.52,1.52,0,0,1-.8.219,1.5,1.5,0,0,1-.811-0.219,0.79,0.79,0,0,1-.351-0.726V54.489h-4.7a0.747,0.747,0,0,1-.642-0.277,1.089,1.089,0,0,1-.206-0.669,1.194,1.194,0,0,1,.206-0.692,0.724,0.724,0,0,1,.642-0.3h13.4a20.053,20.053,0,0,0,.524-2.7,29.655,29.655,0,0,0,.194-3.435V45.613a0.521,0.521,0,0,0-.109-0.38,0.585,0.585,0,0,0-.4-0.1H251.55a0.718,0.718,0,0,1-.653-0.3,1.238,1.238,0,0,1-.194-0.692,1.281,1.281,0,0,1,.194-0.715,0.718,0.718,0,0,1,.653-0.3h12.128a2.19,2.19,0,0,1,1.465.369,1.822,1.822,0,0,1,.4,1.36V46.3a27.664,27.664,0,0,1-.266,3.9,18.522,18.522,0,0,1-.488,2.352h2.86a0.725,0.725,0,0,1,.642.3,1.194,1.194,0,0,1,.206.692,1.089,1.089,0,0,1-.206.669A0.748,0.748,0,0,1,267.648,54.489ZM246.612,54.3H227.924a0.708,0.708,0,0,1-.617-0.288,1.226,1.226,0,0,1,0-1.36,0.709,0.709,0,0,1,.617-0.288h8.158V50.063h-4.333a2.133,2.133,0,0,1-1.452-.369,1.854,1.854,0,0,1-.388-1.36v-3.85a1.855,1.855,0,0,1,.388-1.36,2.135,2.135,0,0,1,1.452-.369h11.983a0.709,0.709,0,0,1,.617.288,1.142,1.142,0,0,1,.206.68,1.09,1.09,0,0,1-.206.669,0.72,0.72,0,0,1-.617.277H232.838a0.439,0.439,0,0,0-.508.484v2.513a0.439,0.439,0,0,0,.508.484h11.136a0.72,0.72,0,0,1,.617.277,1.09,1.09,0,0,1,.206.669,1.14,1.14,0,0,1-.206.68,0.708,0.708,0,0,1-.617.288h-5.519v2.306h8.157a0.71,0.71,0,0,1,.618.288,1.231,1.231,0,0,1,0,1.36A0.71,0.71,0,0,1,246.612,54.3Zm-16.027,46.1v0.085c0,1.867-1.648,3.055-3.786,3.055s-3.786-1.188-3.786-3.055V100.4c0-1.867,1.648-3.012,3.786-3.012S230.585,98.536,230.585,100.4Zm-7.526-38.444a1.564,1.564,0,0,1-.835-0.231,0.8,0.8,0,0,1-.375-0.738V43.008a0.8,0.8,0,0,1,.375-0.738,1.564,1.564,0,0,1,.835-0.231,1.608,1.608,0,0,1,.859.231,0.8,0.8,0,0,1,.376.738V60.99a0.8,0.8,0,0,1-.376.738A1.608,1.608,0,0,1,223.059,61.959Zm-12.032,61.567a7.064,7.064,0,0,0,4.454-1.57,3.246,3.246,0,0,1,1.826-.594,2.784,2.784,0,0,1,2.851,2.758,2.67,2.67,0,0,1-.98,2.036,12.083,12.083,0,0,1-8.463,2.928c-7.172,0-12.428-5.261-12.428-11.753v-0.084c0-6.492,5.212-11.838,12.517-11.838a12.333,12.333,0,0,1,8.151,2.546,2.809,2.809,0,0,1,1.069,2.206,2.975,2.975,0,0,1-3.073,2.885,3.287,3.287,0,0,1-1.96-.636,6.65,6.65,0,0,0-4.232-1.443,5.926,5.926,0,0,0-5.79,6.2v0.085A5.951,5.951,0,0,0,211.027,123.526ZM212.553,57a5.122,5.122,0,0,1-4.248-1.764,8.038,8.038,0,0,1-1.416-5.13,8.039,8.039,0,0,1,1.416-5.13,6.013,6.013,0,0,1,8.509,0,7.99,7.99,0,0,1,1.428,5.13,7.99,7.99,0,0,1-1.428,5.13A5.16,5.16,0,0,1,212.553,57Zm2.578-10.513a3.267,3.267,0,0,0-5.132,0,7,7,0,0,0-.762,3.62,7,7,0,0,0,.762,3.62,3.267,3.267,0,0,0,5.132,0,7,7,0,0,0,.763-3.62A7,7,0,0,0,215.131,46.489Zm-18.046,15.47a1.5,1.5,0,0,1-.823-0.231,0.809,0.809,0,0,1-.363-0.738V50.063h-5.616a0.734,0.734,0,0,1-.642-0.288,1.179,1.179,0,0,1-.206-0.7,1.194,1.194,0,0,1,.206-0.692,0.725,0.725,0,0,1,.642-0.3H195.9V43.008a0.809,0.809,0,0,1,.363-0.738,1.5,1.5,0,0,1,.823-0.231,1.547,1.547,0,0,1,.847.231,0.809,0.809,0,0,1,.363.738V60.99a0.809,0.809,0,0,1-.363.738A1.547,1.547,0,0,1,197.085,61.959Zm-4.006-7.516a1.068,1.068,0,0,1,.3.645,1.359,1.359,0,0,1-.109.749,0.661,0.661,0,0,1-.569.38q-0.847.116-1.827,0.208t-2.155.161q-1.175.069-2.578,0.1t-3.1.035a2.186,2.186,0,0,1-1.465-.369,1.821,1.821,0,0,1-.4-1.36V44.391a0.832,0.832,0,0,1,.363-0.761,1.547,1.547,0,0,1,.847-0.231,1.608,1.608,0,0,1,.859.231,0.824,0.824,0,0,1,.376.761v9.867a0.439,0.439,0,0,0,.508.484q2.228,0,4.26-.127t4.019-.38A0.773,0.773,0,0,1,193.079,54.443Zm2.977,61.913a3.015,3.015,0,0,1-3.162,3.1H179.486c0.668,2.927,2.806,4.455,5.835,4.455a8.072,8.072,0,0,0,4.811-1.528,2.612,2.612,0,0,1,1.648-.509,2.527,2.527,0,0,1,2.628,2.546,2.482,2.482,0,0,1-.891,1.909,12.75,12.75,0,0,1-8.285,2.758c-7.171,0-12.472-4.794-12.472-11.753v-0.084a11.583,11.583,0,0,1,11.8-11.838A11,11,0,0,1,196.056,116.356Zm-16.659-.934h10.2c-0.4-2.885-2.182-4.837-5.033-4.837C181.758,110.585,179.932,112.5,179.4,115.422Zm-3.542-53.463a1.566,1.566,0,0,1-.835-0.231,0.8,0.8,0,0,1-.375-0.738V43.008a0.8,0.8,0,0,1,.375-0.738,1.566,1.566,0,0,1,.835-0.231,1.614,1.614,0,0,1,.86.231,0.8,0.8,0,0,1,.375.738V60.99a0.8,0.8,0,0,1-.375.738A1.614,1.614,0,0,1,175.855,61.959ZM165.349,57a5.122,5.122,0,0,1-4.248-1.764,8.038,8.038,0,0,1-1.416-5.13,8.039,8.039,0,0,1,1.416-5.13,6.013,6.013,0,0,1,8.509,0,7.99,7.99,0,0,1,1.428,5.13,7.99,7.99,0,0,1-1.428,5.13A5.159,5.159,0,0,1,165.349,57Zm2.578-10.513a3.266,3.266,0,0,0-5.131,0,6.994,6.994,0,0,0-.763,3.62,6.993,6.993,0,0,0,.763,3.62,3.266,3.266,0,0,0,5.131,0,6.993,6.993,0,0,0,.763-3.62A6.994,6.994,0,0,0,167.927,46.489Zm-10.275,4.519h-2.663V60.99a0.809,0.809,0,0,1-.363.738,1.673,1.673,0,0,1-1.695,0,0.809,0.809,0,0,1-.363-0.738V43.008a0.809,0.809,0,0,1,.363-0.738,1.673,1.673,0,0,1,1.695,0,0.809,0.809,0,0,1,.363.738V49h2.663a0.792,0.792,0,0,1,.69.288,1.18,1.18,0,0,1,.2.7,1.232,1.232,0,0,1-.2.715A0.778,0.778,0,0,1,157.652,51.008Zm2.186,54.4c5.568,0,10.869,4.158,10.869,11.753v0.085c0,7.594-5.212,11.752-10.869,11.752a9.334,9.334,0,0,1-7.438-3.394v6.788a3.389,3.389,0,0,1-6.771,0V108.8a3.389,3.389,0,0,1,6.771,0v0.3A8.893,8.893,0,0,1,159.838,105.409Zm-7.527,11.753v0.085c0,3.776,2.628,6.279,5.79,6.279s5.835-2.461,5.835-6.279v-0.085c0-3.776-2.672-6.28-5.835-6.28S152.311,113.386,152.311,117.162Zm-6.557-68a4.488,4.488,0,0,0,.3,1.118,5.058,5.058,0,0,0,.569,1,7.322,7.322,0,0,0,.884.991q0.774,0.738,1.5,1.406t1.331,1.153a0.8,0.8,0,0,1,.3.738,1.164,1.164,0,0,1-.351.692,1.242,1.242,0,0,1-.7.369,0.934,0.934,0,0,1-.775-0.231q-0.532-.461-1.174-1.049t-1.392-1.279q-0.508-.507-0.847-0.864a5.728,5.728,0,0,1-.533-0.634,3.291,3.291,0,0,1-.29-0.484,1.328,1.328,0,0,1-.121-0.392h-0.024a2.783,2.783,0,0,1-.134.415,2.3,2.3,0,0,1-.29.484q-0.206.277-.533,0.645t-0.859.876q-0.726.692-1.428,1.337t-1.477,1.291a0.877,0.877,0,0,1-.823.208,1.388,1.388,0,0,1-.7-0.415,1.1,1.1,0,0,1-.3-0.726,0.85,0.85,0,0,1,.351-0.7q0.846-.714,1.6-1.406t1.525-1.429a7.322,7.322,0,0,0,.884-0.991,5.058,5.058,0,0,0,.569-1,4.488,4.488,0,0,0,.3-1.118,9.714,9.714,0,0,0,.085-1.36V45.636h-4.067a0.749,0.749,0,0,1-.666-0.3,1.269,1.269,0,0,1,0-1.383,0.75,0.75,0,0,1,.666-0.3h10.482a0.724,0.724,0,0,1,.641.3,1.264,1.264,0,0,1,0,1.383,0.723,0.723,0,0,1-.641.3h-3.946V47.8A9.714,9.714,0,0,0,145.754,49.163Zm-12.019,12.8a1.566,1.566,0,0,1-.835-0.231,0.8,0.8,0,0,1-.375-0.738V43.008a0.8,0.8,0,0,1,.375-0.738,1.566,1.566,0,0,1,.835-0.231,1.614,1.614,0,0,1,.86.231,0.8,0.8,0,0,1,.375.738V60.99a0.8,0.8,0,0,1-.375.738A1.614,1.614,0,0,1,133.735,61.959Zm-3.7-5.764c-0.566.077-1.174,0.146-1.828,0.208s-1.388.115-2.2,0.161-1.719.081-2.711,0.1-2.1.035-3.329,0.035a2.184,2.184,0,0,1-1.464-.369,1.816,1.816,0,0,1-.4-1.36V45.29a1.818,1.818,0,0,1,.4-1.36,2.186,2.186,0,0,1,1.464-.369h7.892a0.724,0.724,0,0,1,.641.3,1.234,1.234,0,0,1,.206.715,1.14,1.14,0,0,1-.206.68,0.733,0.733,0,0,1-.641.288h-6.827a0.439,0.439,0,0,0-.508.484v8.207a0.439,0.439,0,0,0,.508.484q2.567,0,4.66-.127t4.055-.38a0.773,0.773,0,0,1,.666.208,1.069,1.069,0,0,1,.3.645,1.35,1.35,0,0,1-.109.749A0.66,0.66,0,0,1,130.032,56.2ZM120.9,119.962a3.407,3.407,0,0,1,1.959.594,13.566,13.566,0,0,0,7.973,2.673c2.807,0,4.5-1.061,4.5-2.8v-0.085c0-1.655-1.069-2.5-6.28-3.776-6.281-1.528-10.334-3.182-10.334-9.08V107.4c0-5.388,4.543-8.952,10.913-8.952a18.773,18.773,0,0,1,9.888,2.631,2.955,2.955,0,0,1,1.515,2.588,3.086,3.086,0,0,1-3.207,3.012,3.416,3.416,0,0,1-1.738-.467,13.436,13.436,0,0,0-6.547-1.994c-2.628,0-4.009,1.146-4.009,2.588v0.085c0,1.952,1.336,2.588,6.726,3.9,6.325,1.569,9.888,3.733,9.888,8.909v0.085c0,5.9-4.721,9.207-11.447,9.207a20.823,20.823,0,0,1-11.715-3.564,3.006,3.006,0,0,1-1.291-2.461A3.086,3.086,0,0,1,120.9,119.962Zm1.38,45.018a3.306,3.306,0,0,1,3.386,3.224v0.255a8.635,8.635,0,0,1,7.037-3.649c3.118,0,5.479,1.315,6.726,3.606a10.022,10.022,0,0,1,7.84-3.606c5.033,0,8.062,2.885,8.062,8.358v11.838a3.39,3.39,0,0,1-6.771,0V175.29c0-3.055-1.425-4.625-3.964-4.625s-4.1,1.57-4.1,4.625v9.716a3.389,3.389,0,0,1-6.77,0V175.29c0-3.055-1.426-4.625-3.965-4.625s-4.1,1.57-4.1,4.625v9.716a3.39,3.39,0,0,1-6.771,0V168.2A3.306,3.306,0,0,1,122.284,164.98Zm45.352,9.122a17.745,17.745,0,0,1,5.835.933v-0.382c0-2.673-1.737-4.158-5.123-4.158a16.231,16.231,0,0,0-4.676.637,3,3,0,0,1-.98.169,2.633,2.633,0,0,1-.98-5.133,21.709,21.709,0,0,1,7.616-1.188c3.7,0,6.37.933,8.063,2.545,1.781,1.7,2.583,4.2,2.583,7.256v10.352a3.179,3.179,0,0,1-3.3,3.1,2.981,2.981,0,0,1-3.252-2.673v-0.042a9.4,9.4,0,0,1-7.216,2.885c-4.5,0-8.2-2.461-8.2-6.958v-0.085C158.015,176.393,161.979,174.1,167.636,174.1Zm-3.074,7.085c0,1.74,1.515,2.758,3.7,2.758,3.163,0,5.3-1.655,5.3-3.988v-1.146a10.95,10.95,0,0,0-4.321-.848c-2.9,0-4.677,1.1-4.677,3.139v0.085Zm22.855-24.438a3.306,3.306,0,0,1,3.385,3.224v14.086l8.463-7.637a4.235,4.235,0,0,1,2.984-1.442,2.891,2.891,0,0,1,2.985,2.885,3.805,3.805,0,0,1-1.559,2.8l-5.345,4.37,6.369,8.189a3.3,3.3,0,0,1,.847,2.079,3.006,3.006,0,0,1-3.163,2.927,3.267,3.267,0,0,1-2.94-1.485l-5.924-7.764-2.717,2.333v3.692a3.389,3.389,0,0,1-6.77,0V159.973A3.306,3.306,0,0,1,187.417,156.749Zm39.382-27.92a3.306,3.306,0,0,1-3.385-3.224V108.8a3.389,3.389,0,0,1,6.77,0v16.8A3.306,3.306,0,0,1,226.8,128.829Zm-8.153,35.981a11,11,0,0,1,11.492,10.946,3.016,3.016,0,0,1-3.163,3.1H213.568c0.668,2.927,2.806,4.454,5.835,4.454a8.066,8.066,0,0,0,4.81-1.527,2.614,2.614,0,0,1,1.648-.509,2.526,2.526,0,0,1,2.628,2.546,2.481,2.481,0,0,1-.89,1.909,12.754,12.754,0,0,1-8.285,2.758c-7.172,0-12.472-4.8-12.472-11.753v-0.085A11.582,11.582,0,0,1,218.646,164.81Zm5.033,10.013c-0.4-2.885-2.183-4.837-5.033-4.837-2.807,0-4.633,1.909-5.167,4.837h10.2Zm8.131-118.1a15.869,15.869,0,0,1,10.917,0,3.288,3.288,0,0,1,0,6.006,16.049,16.049,0,0,1-10.917,0A3.288,3.288,0,0,1,231.81,56.725Zm1.634,4.576a13.769,13.769,0,0,0,7.649,0,1.644,1.644,0,0,0,0-3.159,13.769,13.769,0,0,0-7.649,0A1.644,1.644,0,0,0,233.444,61.3Zm9.525,53.4a17.736,17.736,0,0,1,5.835.933v-0.382c0-2.672-1.737-4.157-5.122-4.157a16.241,16.241,0,0,0-4.677.636,3,3,0,0,1-.98.17,2.633,2.633,0,0,1-.98-5.134,21.711,21.711,0,0,1,7.617-1.188c3.7,0,6.369.933,8.062,2.546,1.782,1.7,2.583,4.2,2.583,7.255v10.352a3.178,3.178,0,0,1-3.3,3.1,2.98,2.98,0,0,1-3.251-2.673v-0.042A9.4,9.4,0,0,1,241.544,129c-4.5,0-8.2-2.461-8.2-6.958v-0.085C233.348,116.992,237.312,114.7,242.969,114.7Zm-3.073,7.085c0,1.74,1.514,2.758,3.7,2.758,3.162,0,5.3-1.655,5.3-3.988V119.41a10.945,10.945,0,0,0-4.32-.848c-2.9,0-4.677,1.1-4.677,3.139v0.085Zm23.166,7.043a3.306,3.306,0,0,1-3.385-3.224V100.573a3.389,3.389,0,0,1,6.77,0v25.032A3.306,3.306,0,0,1,263.062,128.829ZM253.305,174.1a17.736,17.736,0,0,1,5.835.933v-0.382c0-2.673-1.737-4.158-5.122-4.158a16.239,16.239,0,0,0-4.677.637,3,3,0,0,1-.98.169,2.633,2.633,0,0,1-.98-5.133A21.715,21.715,0,0,1,255,164.98c3.7,0,6.37.933,8.062,2.545,1.782,1.7,2.584,4.2,2.584,7.256v10.352a3.179,3.179,0,0,1-3.3,3.1,2.981,2.981,0,0,1-3.252-2.673v-0.042a9.4,9.4,0,0,1-7.216,2.885c-4.5,0-8.2-2.461-8.2-6.958v-0.085C243.684,176.393,247.649,174.1,253.305,174.1Zm-3.073,7.085c0,1.74,1.514,2.758,3.7,2.758,3.163,0,5.3-1.655,5.3-3.988v-1.146a10.954,10.954,0,0,0-4.321-.848c-2.895,0-4.677,1.1-4.677,3.139v0.085Zm88.253-16.207a3.306,3.306,0,0,1,3.385,3.224v0.255a8.55,8.55,0,0,1,6.994-3.649c5.122,0,8.106,3.225,8.106,8.443v11.753a3.389,3.389,0,0,1-6.77,0V175.29c0-3.055-1.515-4.625-4.1-4.625s-4.232,1.57-4.232,4.625v9.716a3.389,3.389,0,0,1-6.77,0V168.2A3.306,3.306,0,0,1,338.485,164.98Zm22.23-59.4A3.306,3.306,0,0,1,364.1,108.8v16.8a3.389,3.389,0,0,1-6.77,0V108.8A3.306,3.306,0,0,1,360.715,105.579Zm32.343,59.4a3.306,3.306,0,0,1,3.385,3.224v16.8a3.389,3.389,0,0,1-6.77,0V168.2A3.306,3.306,0,0,1,393.058,164.98Zm11.36,0A3.306,3.306,0,0,1,407.8,168.2v0.255a8.549,8.549,0,0,1,6.993-3.649c5.123,0,8.107,3.225,8.107,8.443v11.753a3.389,3.389,0,0,1-6.77,0V175.29c0-3.055-1.515-4.625-4.1-4.625s-4.232,1.57-4.232,4.625v9.716a3.389,3.389,0,0,1-6.77,0V168.2A3.306,3.306,0,0,1,404.418,164.98Zm87.494-.17A11,11,0,0,1,503.4,175.756a3.016,3.016,0,0,1-3.163,3.1H486.834c0.668,2.927,2.806,4.454,5.835,4.454a8.072,8.072,0,0,0,4.811-1.527,2.612,2.612,0,0,1,1.648-.509,2.527,2.527,0,0,1,2.628,2.546,2.482,2.482,0,0,1-.891,1.909,12.754,12.754,0,0,1-8.285,2.758c-7.171,0-12.472-4.8-12.472-11.753v-0.085A11.582,11.582,0,0,1,491.912,164.81Zm5.033,10.013c-0.4-2.885-2.183-4.837-5.033-4.837-2.806,0-4.633,1.909-5.167,4.837h10.2Zm77.073-9.843A3.306,3.306,0,0,1,577.4,168.2v16.8a3.39,3.39,0,0,1-6.771,0V168.2A3.306,3.306,0,0,1,574.018,164.98Z" transform="translate(0 -0.281)"/>
  </g>
</svg>
