<svg xmlns="http://www.w3.org/2000/svg" width="609.25" height="220.344" viewBox="0 0 609.25 220.344">
  <defs>
    <style>
      .cls-1 {
        fill: #fff;
      }

      .cls-1, .cls-10, .cls-11, .cls-12, .cls-2, .cls-3, .cls-4, .cls-5, .cls-7, .cls-8, .cls-9 {
        fill-rule: evenodd;
      }

      .cls-2 {
        fill: #f4f4f4;
      }

      .cls-3 {
        fill: #212121;
      }

      .cls-4 {
        fill: #2c2d2d;
      }

      .cls-5 {
        fill: #121212;
      }

      .cls-6, .cls-8 {
        fill: none;
        stroke-width: 1px;
      }

      .cls-6 {
        stroke: #999;
        stroke-linejoin: round;
      }

      .cls-7 {
        fill: #c4c4c4;
      }

      .cls-8 {
        stroke: #000;
      }

      .cls-9 {
        fill: #080808;
      }

      .cls-10 {
        fill: #f2f2f2;
      }

      .cls-11 {
        fill: #df0019;
      }

      .cls-12 {
        fill: #242525;
      }
    </style>
  </defs>
  <path class="cls-1" d="M126.02,122.41a0.167,0.167,0,0,1-.189.131,0.159,0.159,0,0,1-.2-0.131A0.213,0.213,0,0,1,126.02,122.41Zm-1.129-.163a0.161,0.161,0,0,0,.156.178,0.17,0.17,0,0,0,.225-0.073,0.18,0.18,0,0,0-.156-0.189,0.186,0.186,0,0,0-.225.084h0Zm1.6-.062a0.182,0.182,0,0,0-.167.178,0.163,0.163,0,0,0,.214.095,0.18,0.18,0,0,0,.167-0.168A0.184,0.184,0,0,0,126.5,122.185Zm2.389-13.924A8.708,8.708,0,0,0,120,117.127a9.109,9.109,0,0,0,6.152,8.692,0.462,0.462,0,0,0,.628-0.44c0-.225-0.01-1.468-0.01-2.231,0,0-2.541.545-3.075-1.083a2.87,2.87,0,0,0-1.009-1.33s-0.831-.57.058-0.559a1.913,1.913,0,0,1,1.4.937,1.918,1.918,0,0,0,2.646.76,2.025,2.025,0,0,1,.581-1.225c-2.029-.225-4.076-0.52-4.076-4.015a2.759,2.759,0,0,1,.856-2.141,3.435,3.435,0,0,1,.095-2.467c0.758-.236,2.5.981,2.5,0.981a8.566,8.566,0,0,1,4.56,0s1.746-1.221,2.5-.981a3.434,3.434,0,0,1,.095,2.467,2.827,2.827,0,0,1,.936,2.141c0,3.506-2.138,3.786-4.167,4.015a2.15,2.15,0,0,1,.617,1.686c0,1.225-.011,2.74-0.011,3.038a0.464,0.464,0,0,0,.628.44A9.026,9.026,0,0,0,138,117.127,8.9,8.9,0,0,0,128.884,108.261Zm-5.358,12.532a0.134,0.134,0,0,0,.025.189,0.14,0.14,0,0,0,.189.037,0.134,0.134,0,0,0-.025-0.189A0.14,0.14,0,0,0,123.526,120.793Zm-0.392-.294a0.116,0.116,0,0,0,.083.142,0.108,0.108,0,0,0,.156-0.026,0.113,0.113,0,0,0-.083-0.141A0.137,0.137,0,0,0,123.134,120.5Zm1.176,1.294a0.155,0.155,0,0,0,.047.225,0.164,0.164,0,0,0,.236.036,0.174,0.174,0,0,0-.047-0.225A0.162,0.162,0,0,0,124.31,121.793Zm-0.414-.535a0.152,0.152,0,0,0,0,.215,0.166,0.166,0,0,0,.2.083,0.164,0.164,0,0,0,0-.225,0.146,0.146,0,0,0-.2-0.073h0Zm90.112-2.81v6.662h-3.861v-6.216c0-1.562-.559-2.628-1.956-2.628a2.115,2.115,0,0,0-1.982,1.414,2.637,2.637,0,0,0-.128.941v6.489h-3.863s0.052-10.528,0-11.619h3.863v1.647l-0.026.037h0.026v-0.037a3.833,3.833,0,0,1,3.481-1.92C212.1,113.218,214.008,114.879,214.008,118.448ZM198.177,107.89a2.013,2.013,0,1,0-.051,4.015h0.026A2.014,2.014,0,1,0,198.177,107.89Zm-1.956,17.22h3.861V113.491h-3.861V125.11ZM38.131,172.772a0.7,0.7,0,0,0-.227-0.588l-1.679-2.025v-0.3h5.219l4.035,8.847,3.547-8.847H54v0.3l-1.437,1.377a0.42,0.42,0,0,0-.16.4v10.124a0.42,0.42,0,0,0,.16.4l1.4,1.377v0.3H46.908v-0.3l1.455-1.411a0.412,0.412,0,0,0,.141-0.4v-8.18l-4.046,10.268H43.911l-4.7-10.268v6.881a0.936,0.936,0,0,0,.261.789l1.891,2.293v0.3H36v-0.3l1.891-2.3a0.906,0.906,0,0,0,.242-0.789v-7.957Zm242.732-58.5a2.952,2.952,0,0,0,1.848-2.876c0-2.743-2.008-3.411-4.325-3.411h-6.378v13.77h6.558c2.458,0,4.767-1.2,4.767-4a3.311,3.311,0,0,0-2.47-3.485h0Zm-5.882-3.936h2.791c1.072,0,2.038.307,2.038,1.573a1.557,1.557,0,0,1-1.813,1.64H274.98v-3.213Zm3.18,9.08h-3.18v-3.792h3.241c1.309,0,2.138.555,2.138,1.966,0,1.391-.989,1.826-2.2,1.826h0Zm13.684-9.352h-5.485v-1.356h5.485v1.356h0Zm2.149,6.85c0-2.949-1.695-5.409-4.767-5.409a4.97,4.97,0,0,0-5.012,5.276c0,3.1,1.92,5.234,5.012,5.234a4.375,4.375,0,0,0,4.584-3.353h-2.374a2.4,2.4,0,0,1-4.531-1.236h7.065C293.981,117.263,293.993,117.088,293.993,116.914Zm-7.084-1.213a2.118,2.118,0,0,1,2.233-2.129,2.023,2.023,0,0,1,2.145,2.129h-4.378Zm-120.392-2.8a4.617,4.617,0,1,0,4.616,4.617A4.609,4.609,0,0,0,166.517,112.9Zm0,7.619a3,3,0,1,1,3-3,3.008,3.008,0,0,1-3,3h0Zm5.881-7.808a1.077,1.077,0,1,1-1.076-1.077A1.074,1.074,0,0,1,172.4,112.709Zm3.058,1.093a4.988,4.988,0,0,0-5.227-5.228c-1.486-.084-5.942-0.084-7.428,0a4.982,4.982,0,0,0-5.227,5.224c-0.084,1.487-.084,5.943,0,7.43a4.988,4.988,0,0,0,5.227,5.228c1.486,0.084,5.942.084,7.428,0a4.988,4.988,0,0,0,5.227-5.228c0.084-1.487.084-5.939,0-7.426h0Zm-1.921,9.021a3.039,3.039,0,0,1-1.711,1.712c-1.185.47-4,.361-5.307,0.361s-4.126.105-5.307-.361a3.039,3.039,0,0,1-1.711-1.712c-0.47-1.185-.362-4-0.362-5.308s-0.1-4.127.362-5.308a3.039,3.039,0,0,1,1.711-1.712c1.185-.47,4-0.361,5.307-0.361s4.126-.105,5.307.361a3.039,3.039,0,0,1,1.711,1.712c0.47,1.185.362,4,.362,5.308S174.005,121.642,173.535,122.823Z" transform="translate(0 -0.656)"/>
  <path class="cls-2" d="M250,120h-2l-4,4v-4h-8a2,2,0,0,1-2-2v-8a2,2,0,0,1,2-2h14a2,2,0,0,1,2,2v8A2,2,0,0,1,250,120Z" transform="translate(0 -0.656)"/>
  <path id="_" data-name="+" class="cls-1" d="M15,215H9v6H6v-6H0v-3H6v-6H9v6h6v3Z" transform="translate(0 -0.656)"/>
  <path id="I_want_to_be_a_designer_who_can_t_be_revealed_but_can_t_be_with" data-name="I want to be a designer who can&apos;t be revealed but can&apos;t be with" class="cls-3" d="M601.181,13.414a3.143,3.143,0,0,0,.99,1.992,2.993,2.993,0,0,0,2.092.75,3.657,3.657,0,0,0,3.059-1.418l1.664,1.863a5.087,5.087,0,0,1-2.063,1.682,6.768,6.768,0,0,1-2.883.6,6.225,6.225,0,0,1-4.541-1.711,6.081,6.081,0,0,1-1.752-4.558V12.289a7.663,7.663,0,0,1,.739-3.416,5.419,5.419,0,0,1,2.091-2.32,5.874,5.874,0,0,1,3.088-.814,5.262,5.262,0,0,1,4.1,1.641,6.667,6.667,0,0,1,1.494,4.652v1.383h-8.074Zm4.746-2.579a2.526,2.526,0,0,0-.609-1.748,2.185,2.185,0,0,0-1.664-.618,2.116,2.116,0,0,0-1.635.683,3.534,3.534,0,0,0-.8,1.954h4.711V10.834Zm-14.742,8.052a3.959,3.959,0,0,1-3.293-1.582l-0.152,1.348h-3.047v-18h3.386V7.109a3.859,3.859,0,0,1,3.083-1.371A4.344,4.344,0,0,1,594.8,7.443a7.688,7.688,0,0,1,1.319,4.8v0.188a7.679,7.679,0,0,1-1.3,4.752A4.31,4.31,0,0,1,591.185,18.886Zm0.937-9.51a2.059,2.059,0,0,0-1.816-.885,2.236,2.236,0,0,0-2.227,1.324v5a2.264,2.264,0,0,0,2.25,1.336,2.092,2.092,0,0,0,2.157-1.617,8.345,8.345,0,0,0,.246-2.355A5.038,5.038,0,0,0,592.122,9.377Zm-17.214,9.51q-3.562,0-3.633-3.6V8.457h-1.852V5.972h1.852V2.855h3.387V5.972h2.167V8.457h-2.167v6.328a1.509,1.509,0,0,0,.269,1.008,1.353,1.353,0,0,0,1.031.3,5.4,5.4,0,0,0,1-.082v2.566A6.968,6.968,0,0,1,574.908,18.886ZM566.165,7.109V0.652h2.485V2.375l-0.34,4.734h-2.145Zm-4.453,3.434a2.2,2.2,0,0,0-.468-1.564,2.1,2.1,0,0,0-1.559-.486,2.331,2.331,0,0,0-2.145,1.219v8.941h-3.386V5.972h3.187l0.106,1.465a4.426,4.426,0,0,1,3.644-1.7,3.679,3.679,0,0,1,3,1.184,5.526,5.526,0,0,1,1.008,3.539v8.191h-3.387V10.543Zm-13.347,6.973a4.1,4.1,0,0,1-3.2,1.371,4.5,4.5,0,0,1-3.087-1.078,3.466,3.466,0,0,1-1.225-2.719A3.583,3.583,0,0,1,542.347,12a7.374,7.374,0,0,1,4.318-1.09h1.559V10.179a2.094,2.094,0,0,0-.451-1.406,1.776,1.776,0,0,0-1.424-.527,2.019,2.019,0,0,0-1.342.41,1.394,1.394,0,0,0-.486,1.125h-3.387a3.4,3.4,0,0,1,.68-2.039,4.5,4.5,0,0,1,1.922-1.471,7.005,7.005,0,0,1,2.789-.533,5.537,5.537,0,0,1,3.721,1.178,4.123,4.123,0,0,1,1.376,3.311v5.5a6.066,6.066,0,0,0,.5,2.73v0.2h-3.421A3.73,3.73,0,0,1,548.365,17.515Zm-0.141-4.629h-1.266q-2.542,0-2.707,1.758l-0.011.2a1.355,1.355,0,0,0,.445,1.043,1.73,1.73,0,0,0,1.219.41,2.917,2.917,0,0,0,1.383-.334,2.2,2.2,0,0,0,.937-0.9v-2.18ZM532.3,15.3a2.066,2.066,0,0,0,1.817.857,2.22,2.22,0,0,0,1.523-.516,1.807,1.807,0,0,0,.61-1.371h3.175a4.345,4.345,0,0,1-.7,2.361,4.642,4.642,0,0,1-1.892,1.664,5.928,5.928,0,0,1-2.655.592,5.505,5.505,0,0,1-4.289-1.728,6.839,6.839,0,0,1-1.57-4.775V12.16a6.758,6.758,0,0,1,1.559-4.676,5.438,5.438,0,0,1,4.277-1.746,5.332,5.332,0,0,1,3.814,1.354,4.79,4.79,0,0,1,1.459,3.6h-3.175a2.328,2.328,0,0,0-.61-1.608,2.265,2.265,0,0,0-3.334.244,5,5,0,0,0-.6,2.8v0.352A5.067,5.067,0,0,0,532.3,15.3ZM521.218,47.85a2.993,2.993,0,0,0,2.092.75,3.656,3.656,0,0,0,3.059-1.418l1.664,1.863a5.087,5.087,0,0,1-2.063,1.682,6.767,6.767,0,0,1-2.883.6,6.225,6.225,0,0,1-4.541-1.711,6.082,6.082,0,0,1-1.752-4.559V44.733a7.65,7.65,0,0,1,.739-3.416A5.419,5.419,0,0,1,519.624,39a5.874,5.874,0,0,1,3.088-.814,5.262,5.262,0,0,1,4.1,1.641,6.667,6.667,0,0,1,1.494,4.652v1.383h-8.074A3.142,3.142,0,0,0,521.218,47.85Zm3.756-4.3V43.279a2.526,2.526,0,0,0-.609-1.748,2.185,2.185,0,0,0-1.664-.618,2.117,2.117,0,0,0-1.635.683,3.535,3.535,0,0,0-.8,1.954h4.711Zm-5.918-24.663q-3.562,0-3.633-3.6V8.457h-1.851V5.972h1.851V2.855h3.387V5.972h2.168V8.457H518.81v6.328a1.509,1.509,0,0,0,.27,1.008,1.351,1.351,0,0,0,1.031.3,5.4,5.4,0,0,0,1-.082v2.566A6.975,6.975,0,0,1,519.056,18.886Zm-10.137-1.523a4.246,4.246,0,0,1-3.468,1.523,4.006,4.006,0,0,1-3.112-1.172,5,5,0,0,1-1.095-3.434V5.972h3.386v8.2q0,1.983,1.805,1.983a2.445,2.445,0,0,0,2.367-1.2V5.972h3.4v12.68h-3.188ZM505.3,39.823a6.667,6.667,0,0,1,1.494,4.652v1.383h-8.074a3.147,3.147,0,0,0,.99,1.992,2.993,2.993,0,0,0,2.092.75,3.656,3.656,0,0,0,3.059-1.418l1.664,1.863a5.087,5.087,0,0,1-2.063,1.682,6.767,6.767,0,0,1-2.883.6,6.225,6.225,0,0,1-4.541-1.711,6.082,6.082,0,0,1-1.752-4.559V44.733a7.663,7.663,0,0,1,.739-3.416A5.415,5.415,0,0,1,498.121,39a5.868,5.868,0,0,1,3.087-.814A5.262,5.262,0,0,1,505.3,39.823Zm-4.107,1.09a2.117,2.117,0,0,0-1.635.683,3.535,3.535,0,0,0-.8,1.954h4.711V43.279a2.526,2.526,0,0,0-.609-1.748A2.185,2.185,0,0,0,501.2,40.913Zm-6.891-22.026a3.959,3.959,0,0,1-3.293-1.582l-0.152,1.348h-3.047v-18H491.2V7.109a3.856,3.856,0,0,1,3.082-1.371,4.343,4.343,0,0,1,3.638,1.705,7.688,7.688,0,0,1,1.319,4.8v0.188a7.679,7.679,0,0,1-1.3,4.752A4.308,4.308,0,0,1,494.306,18.886Zm0.938-9.51a2.062,2.062,0,0,0-1.817-.885A2.233,2.233,0,0,0,491.2,9.816v5a2.264,2.264,0,0,0,2.25,1.336,2.091,2.091,0,0,0,2.156-1.617,8.345,8.345,0,0,0,.246-2.355A5.047,5.047,0,0,0,495.244,9.377Zm-6.235,28.806q4.125,0,4.184,4.793V51.1h-3.387V43.069a2.353,2.353,0,0,0-.469-1.611,2.008,2.008,0,0,0-1.558-.522,2.3,2.3,0,0,0-2.156,1.148V51.1h-3.387v-18h3.387v6.7A4.225,4.225,0,0,1,489.009,38.182ZM474.572,51.1l-2.4-7.98-2.4,7.98h-2.824l-3.235-12.68h3.27l1.652,8.063,2.321-8.063H473.4l2.308,8.074,1.664-8.074h3.27L477.408,51.1h-2.836ZM475.99,17.3a3.986,3.986,0,0,1-3.258,1.582,4.3,4.3,0,0,1-3.592-1.764,7.889,7.889,0,0,1-1.353-4.9,7.64,7.64,0,0,1,1.33-4.723,4.314,4.314,0,0,1,3.638-1.758,3.884,3.884,0,0,1,3.059,1.383V0.652h3.4v18h-3.058Zm-0.176-7.486a2.233,2.233,0,0,0-2.191-1.326q-2.45,0-2.45,3.979a5.005,5.005,0,0,0,.621,2.735,2.024,2.024,0,0,0,1.805.951,2.266,2.266,0,0,0,2.215-1.326V9.818Zm-16.506,5.588a2.993,2.993,0,0,0,2.092.75,3.657,3.657,0,0,0,3.059-1.418l1.664,1.863a5.087,5.087,0,0,1-2.063,1.682,6.768,6.768,0,0,1-2.883.6,6.225,6.225,0,0,1-4.541-1.711,6.081,6.081,0,0,1-1.752-4.558V12.289a7.649,7.649,0,0,1,.739-3.416,5.419,5.419,0,0,1,2.091-2.32,5.874,5.874,0,0,1,3.088-.814,5.262,5.262,0,0,1,4.1,1.641,6.667,6.667,0,0,1,1.494,4.652v1.383h-8.074A3.143,3.143,0,0,0,459.308,15.406Zm3.756-4.3V10.834a2.526,2.526,0,0,0-.609-1.748,2.185,2.185,0,0,0-1.664-.618,2.116,2.116,0,0,0-1.635.683,3.534,3.534,0,0,0-.8,1.954h4.711ZM449.154,0.652h3.4v18h-3.4v-18ZM450.068,51.1h-3.387V42.987a2.2,2.2,0,0,0-.469-1.565,2.1,2.1,0,0,0-1.558-.486,2.33,2.33,0,0,0-2.145,1.219V51.1h-3.387V38.417h3.188l0.105,1.465a4.43,4.43,0,0,1,3.645-1.7,3.679,3.679,0,0,1,3,1.184,5.526,5.526,0,0,1,1.008,3.539V51.1Zm-6.949-33.581a4.1,4.1,0,0,1-3.2,1.371,4.5,4.5,0,0,1-3.088-1.078,3.466,3.466,0,0,1-1.225-2.719A3.583,3.583,0,0,1,437.1,12a7.375,7.375,0,0,1,4.319-1.09h1.558V10.179a2.088,2.088,0,0,0-.451-1.406,1.776,1.776,0,0,0-1.424-.527,2.019,2.019,0,0,0-1.342.41,1.394,1.394,0,0,0-.486,1.125h-3.387a3.4,3.4,0,0,1,.68-2.039,4.5,4.5,0,0,1,1.922-1.471,7.005,7.005,0,0,1,2.789-.533A5.537,5.537,0,0,1,445,6.916a4.123,4.123,0,0,1,1.377,3.311v5.5a6.054,6.054,0,0,0,.5,2.73v0.2h-3.421A3.73,3.73,0,0,1,443.119,17.515Zm-0.141-4.629h-1.266q-2.543,0-2.707,1.758l-0.011.2a1.355,1.355,0,0,0,.445,1.043,1.73,1.73,0,0,0,1.219.41,2.917,2.917,0,0,0,1.383-.334,2.2,2.2,0,0,0,.937-0.9v-2.18Zm-6.387,35.28a6.066,6.066,0,0,0,.5,2.73v0.2h-3.422a3.787,3.787,0,0,1-.34-1.137,4.1,4.1,0,0,1-3.2,1.371,4.5,4.5,0,0,1-3.088-1.078,3.468,3.468,0,0,1-1.224-2.719,3.584,3.584,0,0,1,1.494-3.094,7.372,7.372,0,0,1,4.318-1.09h1.559V42.624a2.094,2.094,0,0,0-.451-1.406,1.776,1.776,0,0,0-1.424-.527,2.017,2.017,0,0,0-1.342.41,1.394,1.394,0,0,0-.486,1.125H426.1a3.4,3.4,0,0,1,.68-2.039,4.488,4.488,0,0,1,1.922-1.471,7,7,0,0,1,2.789-.533,5.533,5.533,0,0,1,3.72,1.178,4.12,4.12,0,0,1,1.377,3.311v5.5Zm-3.4-2.836h-1.266q-2.543,0-2.707,1.758l-0.012.2a1.356,1.356,0,0,0,.446,1.043,1.729,1.729,0,0,0,1.219.41,2.918,2.918,0,0,0,1.382-.334,2.194,2.194,0,0,0,.938-0.9v-2.18Zm-6.088-29.925a2.993,2.993,0,0,0,2.092.75,3.655,3.655,0,0,0,3.058-1.418L433.92,16.6a5.087,5.087,0,0,1-2.063,1.682,6.768,6.768,0,0,1-2.883.6,6.225,6.225,0,0,1-4.541-1.711,6.081,6.081,0,0,1-1.752-4.558V12.289a7.649,7.649,0,0,1,.739-3.416,5.419,5.419,0,0,1,2.091-2.32,5.874,5.874,0,0,1,3.088-.814,5.262,5.262,0,0,1,4.1,1.641,6.667,6.667,0,0,1,1.494,4.652v1.383h-8.074A3.143,3.143,0,0,0,427.105,15.406Zm3.756-4.3V10.834a2.526,2.526,0,0,0-.609-1.748,2.186,2.186,0,0,0-1.665-.618,2.116,2.116,0,0,0-1.634.683,3.534,3.534,0,0,0-.8,1.954h4.711Zm-16.57,7.547-4.278-12.68h3.539l2.356,8.543,2.355-8.543H421.8l-4.277,12.68h-3.234Zm-1.454,19.53a5.262,5.262,0,0,1,4.1,1.641,6.667,6.667,0,0,1,1.494,4.652v1.383h-8.074a3.142,3.142,0,0,0,.99,1.992,2.993,2.993,0,0,0,2.092.75,3.656,3.656,0,0,0,3.059-1.418l1.664,1.863a5.087,5.087,0,0,1-2.063,1.682,6.767,6.767,0,0,1-2.883.6,6.225,6.225,0,0,1-4.541-1.711,6.082,6.082,0,0,1-1.752-4.559V44.733a7.663,7.663,0,0,1,.739-3.416A5.415,5.415,0,0,1,409.75,39,5.868,5.868,0,0,1,412.837,38.182Zm-2.449,5.367H415.1V43.279a2.526,2.526,0,0,0-.609-1.748,2.185,2.185,0,0,0-1.664-.618,2.117,2.117,0,0,0-1.635.683A3.535,3.535,0,0,0,410.388,43.55Zm-8.08-28.144a2.993,2.993,0,0,0,2.092.75,3.657,3.657,0,0,0,3.059-1.418l1.664,1.863a5.087,5.087,0,0,1-2.063,1.682,6.768,6.768,0,0,1-2.883.6,6.225,6.225,0,0,1-4.541-1.711,6.081,6.081,0,0,1-1.752-4.558V12.289a7.649,7.649,0,0,1,.739-3.416,5.419,5.419,0,0,1,2.091-2.32,5.874,5.874,0,0,1,3.088-.814,5.262,5.262,0,0,1,4.1,1.641,6.667,6.667,0,0,1,1.494,4.652v1.383h-8.074A3.143,3.143,0,0,0,402.308,15.406Zm3.756-4.3V10.834a2.526,2.526,0,0,0-.609-1.748,2.185,2.185,0,0,0-1.664-.618,2.116,2.116,0,0,0-1.635.683,3.534,3.534,0,0,0-.8,1.954h4.711ZM395.9,43.139a2.332,2.332,0,0,0-.609-1.608,2.265,2.265,0,0,0-3.334.244,4.993,4.993,0,0,0-.6,2.8v0.352a5.057,5.057,0,0,0,.6,2.817,2.063,2.063,0,0,0,1.816.857,2.223,2.223,0,0,0,1.524-.516,1.81,1.81,0,0,0,.609-1.371h3.176a4.354,4.354,0,0,1-.7,2.361,4.645,4.645,0,0,1-1.893,1.664,5.927,5.927,0,0,1-2.654.592,5.5,5.5,0,0,1-4.289-1.728,6.839,6.839,0,0,1-1.571-4.775V44.6a6.763,6.763,0,0,1,1.559-4.676,5.441,5.441,0,0,1,4.277-1.746,5.335,5.335,0,0,1,3.815,1.354,4.794,4.794,0,0,1,1.459,3.6H395.9ZM395.716,9.054a2.48,2.48,0,0,0-2.519,1.3v8.3H389.81V5.972h3.2L393.1,7.484a3.138,3.138,0,0,1,2.824-1.746,3.554,3.554,0,0,1,1.055.152l-0.047,3.258A9.21,9.21,0,0,0,395.716,9.054ZM385.873,41.5a2.481,2.481,0,0,0-2.52,1.3v8.3h-3.387V38.417h3.2l0.093,1.512a3.139,3.139,0,0,1,2.825-1.746,3.549,3.549,0,0,1,1.054.152l-0.047,3.258A9.214,9.214,0,0,0,385.873,41.5ZM374.828,15.406a2.993,2.993,0,0,0,2.092.75,3.655,3.655,0,0,0,3.058-1.418l1.664,1.863a5.084,5.084,0,0,1-2.062,1.682,6.768,6.768,0,0,1-2.883.6,6.225,6.225,0,0,1-4.541-1.711,6.081,6.081,0,0,1-1.752-4.558V12.289a7.663,7.663,0,0,1,.738-3.416,5.421,5.421,0,0,1,2.092-2.32,5.872,5.872,0,0,1,3.088-.814,5.263,5.263,0,0,1,4.1,1.641,6.667,6.667,0,0,1,1.494,4.652v1.383h-8.074A3.143,3.143,0,0,0,374.828,15.406Zm3.756-4.3V10.834a2.522,2.522,0,0,0-.61-1.748,2.182,2.182,0,0,0-1.664-.618,2.116,2.116,0,0,0-1.635.683,3.533,3.533,0,0,0-.8,1.954h4.711Zm-10.09,32.034a2.328,2.328,0,0,0-.61-1.608,2.265,2.265,0,0,0-3.334.244,5,5,0,0,0-.6,2.8v0.352a5.057,5.057,0,0,0,.6,2.817,2.063,2.063,0,0,0,1.816.857,2.218,2.218,0,0,0,1.523-.516,1.807,1.807,0,0,0,.61-1.371h3.176a4.346,4.346,0,0,1-.7,2.361,4.636,4.636,0,0,1-1.892,1.664,5.927,5.927,0,0,1-2.654.592,5.506,5.506,0,0,1-4.29-1.728,6.844,6.844,0,0,1-1.57-4.775V44.6a6.763,6.763,0,0,1,1.559-4.676,5.441,5.441,0,0,1,4.277-1.746,5.336,5.336,0,0,1,3.815,1.354,4.8,4.8,0,0,1,1.459,3.6h-3.176Zm-4.653-24.253a3.957,3.957,0,0,1-3.292-1.582L360.4,18.652h-3.047v-18h3.387V7.109a3.857,3.857,0,0,1,3.082-1.371,4.345,4.345,0,0,1,3.639,1.705,7.688,7.688,0,0,1,1.318,4.8v0.188a7.679,7.679,0,0,1-1.3,4.752A4.308,4.308,0,0,1,363.841,18.886Zm0.938-9.51a2.061,2.061,0,0,0-1.816-.885,2.234,2.234,0,0,0-2.227,1.324v5a2.264,2.264,0,0,0,2.25,1.336,2.091,2.091,0,0,0,2.156-1.617,8.345,8.345,0,0,0,.246-2.355A5.047,5.047,0,0,0,364.779,9.377ZM349.252,49.96a4.1,4.1,0,0,1-3.2,1.371,4.5,4.5,0,0,1-3.087-1.078,3.466,3.466,0,0,1-1.225-2.719,3.584,3.584,0,0,1,1.494-3.094,7.374,7.374,0,0,1,4.318-1.09h1.559V42.624a2.089,2.089,0,0,0-.451-1.406,1.776,1.776,0,0,0-1.424-.527,2.019,2.019,0,0,0-1.342.41,1.394,1.394,0,0,0-.486,1.125h-3.387a3.4,3.4,0,0,1,.68-2.039,4.494,4.494,0,0,1,1.922-1.471,7.005,7.005,0,0,1,2.789-.533,5.533,5.533,0,0,1,3.72,1.178,4.12,4.12,0,0,1,1.377,3.311v5.5a6.066,6.066,0,0,0,.5,2.73v0.2h-3.422A3.759,3.759,0,0,1,349.252,49.96Zm-0.141-4.629h-1.266q-2.543,0-2.707,1.758l-0.011.2a1.355,1.355,0,0,0,.445,1.043,1.729,1.729,0,0,0,1.219.41,2.919,2.919,0,0,0,1.383-.334,2.2,2.2,0,0,0,.937-0.9v-2.18Zm-1.547-26.444q-3.562,0-3.633-3.6V8.457H342.08V5.972h1.851V2.855h3.387V5.972h2.168V8.457h-2.168v6.328a1.509,1.509,0,0,0,.27,1.008,1.351,1.351,0,0,0,1.031.3,5.4,5.4,0,0,0,1-.082v2.566A6.975,6.975,0,0,1,347.564,18.886ZM338.822,7.109V0.652h2.484V2.375l-0.339,4.734h-2.145Zm-4.453,3.434a2.195,2.195,0,0,0-.469-1.564,2.1,2.1,0,0,0-1.558-.486A2.329,2.329,0,0,0,330.2,9.711v8.941H326.81V5.972H330L330.1,7.437a4.427,4.427,0,0,1,3.645-1.7,3.68,3.68,0,0,1,3,1.184,5.526,5.526,0,0,1,1.008,3.539v8.191h-3.387V10.543Zm-4.676,27.64a3.679,3.679,0,0,1,3,1.184A5.526,5.526,0,0,1,333.7,42.9V51.1h-3.387V42.987a2.2,2.2,0,0,0-.469-1.565,2.1,2.1,0,0,0-1.558-.486,2.331,2.331,0,0,0-2.145,1.219V51.1h-3.386V38.417h3.187l0.106,1.465A4.426,4.426,0,0,1,329.693,38.182Zm-8.672-20.667a4.1,4.1,0,0,1-3.2,1.371,4.5,4.5,0,0,1-3.088-1.078,3.468,3.468,0,0,1-1.224-2.719A3.583,3.583,0,0,1,315,12a7.372,7.372,0,0,1,4.318-1.09h1.559V10.179a2.089,2.089,0,0,0-.452-1.406,1.773,1.773,0,0,0-1.423-.527,2.017,2.017,0,0,0-1.342.41,1.394,1.394,0,0,0-.486,1.125h-3.387a3.4,3.4,0,0,1,.679-2.039,4.5,4.5,0,0,1,1.922-1.471,7.005,7.005,0,0,1,2.789-.533A5.534,5.534,0,0,1,322.9,6.916a4.12,4.12,0,0,1,1.377,3.311v5.5a6.066,6.066,0,0,0,.5,2.73v0.2h-3.422A3.787,3.787,0,0,1,321.021,17.515Zm-0.14-4.629h-1.266q-2.543,0-2.707,1.758l-0.012.2a1.356,1.356,0,0,0,.446,1.043,1.727,1.727,0,0,0,1.218.41,2.917,2.917,0,0,0,1.383-.334,2.2,2.2,0,0,0,.938-0.9v-2.18ZM304.955,15.3a2.064,2.064,0,0,0,1.816.857,2.223,2.223,0,0,0,1.524-.516,1.81,1.81,0,0,0,.609-1.371h3.176a4.345,4.345,0,0,1-.7,2.361,4.638,4.638,0,0,1-1.893,1.664,5.924,5.924,0,0,1-2.654.592,5.5,5.5,0,0,1-4.289-1.728,6.84,6.84,0,0,1-1.571-4.775V12.16a6.763,6.763,0,0,1,1.559-4.676,5.441,5.441,0,0,1,4.277-1.746,5.334,5.334,0,0,1,3.815,1.354,4.794,4.794,0,0,1,1.459,3.6H308.9a2.332,2.332,0,0,0-.609-1.608,2.265,2.265,0,0,0-3.334.244,4.994,4.994,0,0,0-.6,2.8v0.352A5.057,5.057,0,0,0,304.955,15.3Zm-0.492,24.266V33.1h3.4v18H304.8l-0.165-1.348a3.983,3.983,0,0,1-3.257,1.582,4.3,4.3,0,0,1-3.592-1.764,7.889,7.889,0,0,1-1.354-4.9,7.646,7.646,0,0,1,1.33-4.723,4.317,4.317,0,0,1,3.639-1.758A3.886,3.886,0,0,1,304.463,39.565Zm-4.641,5.35a5.006,5.006,0,0,0,.621,2.735,2.023,2.023,0,0,0,1.805.951,2.266,2.266,0,0,0,2.215-1.326V42.262a2.235,2.235,0,0,0-2.192-1.326Q299.821,40.936,299.822,44.915ZM287.957,47.85a2.993,2.993,0,0,0,2.092.75,3.655,3.655,0,0,0,3.058-1.418l1.664,1.863a5.084,5.084,0,0,1-2.062,1.682,6.767,6.767,0,0,1-2.883.6,6.225,6.225,0,0,1-4.541-1.711,6.082,6.082,0,0,1-1.752-4.559V44.733a7.663,7.663,0,0,1,.738-3.416A5.428,5.428,0,0,1,286.363,39a5.872,5.872,0,0,1,3.088-.814,5.263,5.263,0,0,1,4.1,1.641,6.667,6.667,0,0,1,1.494,4.652v1.383h-8.074A3.142,3.142,0,0,0,287.957,47.85Zm3.756-4.3V43.279a2.522,2.522,0,0,0-.61-1.748,2.182,2.182,0,0,0-1.664-.618,2.113,2.113,0,0,0-1.634.683,3.527,3.527,0,0,0-.8,1.954h4.711Zm-4.278-24.663a5.691,5.691,0,0,1-4.377-1.758,6.747,6.747,0,0,1-1.634-4.781V12.2a7.525,7.525,0,0,1,.726-3.363,5.324,5.324,0,0,1,2.092-2.285,6.1,6.1,0,0,1,3.17-.809,5.773,5.773,0,0,1,4.189,1.57,6.3,6.3,0,0,1,1.811,4.266l0.023,0.867a6.627,6.627,0,0,1-1.629,4.682A5.662,5.662,0,0,1,287.435,18.886Zm1.922-9.444a2.247,2.247,0,0,0-1.945-.974,2.211,2.211,0,0,0-1.922.968,5.275,5.275,0,0,0-.68,3,4.74,4.74,0,0,0,.68,2.764,2.442,2.442,0,0,0,3.867.012,5.185,5.185,0,0,0,.692-3.022A4.692,4.692,0,0,0,289.357,9.443ZM279.5,36.893a1.922,1.922,0,0,1-1.377-.492,1.8,1.8,0,0,1-.012-2.52,2.2,2.2,0,0,1,2.772,0,1.791,1.791,0,0,1-.006,2.52A1.925,1.925,0,0,1,279.5,36.893ZM276.01,10.625a2.358,2.358,0,0,0-.469-1.611,2.011,2.011,0,0,0-1.559-.521,2.3,2.3,0,0,0-2.156,1.148v9.012h-3.387v-18h3.387v6.7a4.226,4.226,0,0,1,3.387-1.617q4.125,0,4.183,4.793v8.121H276.01V10.625Zm-6.844,34.249a7.609,7.609,0,0,1-1.33,4.693,4.265,4.265,0,0,1-3.592,1.764,3.95,3.95,0,0,1-3.105-1.336v5.977h-3.387V38.417h3.14l0.118,1.242a3.979,3.979,0,0,1,3.211-1.477,4.293,4.293,0,0,1,3.644,1.734,7.812,7.812,0,0,1,1.3,4.781v0.176ZM265.152,41.9a2.042,2.042,0,0,0-1.822-.961,2.216,2.216,0,0,0-2.191,1.219v5.191a2.254,2.254,0,0,0,2.214,1.254q2.427,0,2.426-3.973A4.99,4.99,0,0,0,265.152,41.9Zm-4.377-23.245-2.4-7.981-2.4,7.981h-2.825l-3.234-12.68h3.269l1.653,8.062,2.32-8.062H259.6l2.309,8.074,1.664-8.074h3.27l-3.235,12.68h-2.836Zm-10.066,19.53a4.293,4.293,0,0,1,3.644,1.734,7.805,7.805,0,0,1,1.3,4.781v0.176a7.6,7.6,0,0,1-1.33,4.693,4.265,4.265,0,0,1-3.592,1.764,3.95,3.95,0,0,1-3.1-1.336v5.977H244.24V38.417h3.141l0.117,1.242A3.981,3.981,0,0,1,250.709,38.182Zm-0.891,2.754a2.217,2.217,0,0,0-2.191,1.219v5.191a2.255,2.255,0,0,0,2.215,1.254q2.425,0,2.425-3.973a5,5,0,0,0-.626-2.73A2.045,2.045,0,0,0,249.818,40.936ZM242.06,9.054a2.48,2.48,0,0,0-2.519,1.3v8.3h-3.387V5.972h3.2l0.094,1.512a3.138,3.138,0,0,1,2.824-1.746,3.554,3.554,0,0,1,1.055.152l-0.047,3.258A9.21,9.21,0,0,0,242.06,9.054Zm-1.8,30.306a4.12,4.12,0,0,1,1.377,3.311v5.5a6.038,6.038,0,0,0,.5,2.73v0.2h-3.422a3.73,3.73,0,0,1-.34-1.137,4.1,4.1,0,0,1-3.2,1.371,4.5,4.5,0,0,1-3.088-1.078,3.466,3.466,0,0,1-1.225-2.719,3.584,3.584,0,0,1,1.494-3.094,7.375,7.375,0,0,1,4.319-1.09h1.558V42.624a2.089,2.089,0,0,0-.451-1.406,1.775,1.775,0,0,0-1.424-.527,2.019,2.019,0,0,0-1.342.41,1.394,1.394,0,0,0-.486,1.125H231.15a3.4,3.4,0,0,1,.68-2.039,4.494,4.494,0,0,1,1.922-1.471,7.005,7.005,0,0,1,2.789-.533A5.536,5.536,0,0,1,240.262,39.36Zm-3.287,5.971q-2.544,0-2.708,1.758l-0.011.2a1.355,1.355,0,0,0,.445,1.043,1.729,1.729,0,0,0,1.219.41,2.919,2.919,0,0,0,1.383-.334,2.191,2.191,0,0,0,.937-0.9v-2.18h-1.265Zm-9.827-29.925a2.993,2.993,0,0,0,2.092.75,3.657,3.657,0,0,0,3.059-1.418l1.664,1.863a5.08,5.08,0,0,1-2.063,1.682,6.768,6.768,0,0,1-2.883.6,6.225,6.225,0,0,1-4.541-1.711,6.08,6.08,0,0,1-1.751-4.558V12.289a7.663,7.663,0,0,1,.738-3.416,5.415,5.415,0,0,1,2.092-2.32,5.869,5.869,0,0,1,3.088-.814,5.261,5.261,0,0,1,4.095,1.641,6.667,6.667,0,0,1,1.494,4.652v1.383h-8.074A3.147,3.147,0,0,0,227.148,15.406Zm3.756-4.3V10.834a2.526,2.526,0,0,0-.609-1.748,2.185,2.185,0,0,0-1.664-.618A2.116,2.116,0,0,0,227,9.151a3.534,3.534,0,0,0-.8,1.954H230.9Zm-7.429,34.753H215.4a3.148,3.148,0,0,0,.991,1.992,2.991,2.991,0,0,0,2.091.75,3.655,3.655,0,0,0,3.059-1.418l1.664,1.863a5.084,5.084,0,0,1-2.062,1.682,6.773,6.773,0,0,1-2.883.6,6.223,6.223,0,0,1-4.541-1.711,6.082,6.082,0,0,1-1.752-4.559V44.733a7.663,7.663,0,0,1,.738-3.416A5.422,5.422,0,0,1,214.8,39a5.869,5.869,0,0,1,3.088-.814,5.261,5.261,0,0,1,4.095,1.641,6.663,6.663,0,0,1,1.5,4.652v1.383Zm-3.329-2.579a2.517,2.517,0,0,0-.609-1.748,2.183,2.183,0,0,0-1.664-.618,2.117,2.117,0,0,0-1.635.683,3.534,3.534,0,0,0-.8,1.954h4.71V43.279Zm-2.918-32.736a2.2,2.2,0,0,0-.468-1.564,2.1,2.1,0,0,0-1.559-.486,2.329,2.329,0,0,0-2.144,1.219v8.941H209.67V5.972h3.187l0.106,1.465a4.426,4.426,0,0,1,3.644-1.7,3.679,3.679,0,0,1,3,1.184,5.52,5.52,0,0,1,1.008,3.539v8.191h-3.387V10.543Zm-6.89,34.331a7.679,7.679,0,0,1-1.3,4.752,4.308,4.308,0,0,1-3.633,1.705,3.96,3.96,0,0,1-3.293-1.582L201.959,51.1h-3.047v-18H202.3v6.457a3.856,3.856,0,0,1,3.082-1.371,4.345,4.345,0,0,1,3.639,1.705,7.7,7.7,0,0,1,1.318,4.8v0.188Zm-4-3.053a2.062,2.062,0,0,0-1.817-.885A2.233,2.233,0,0,0,202.3,42.26v5a2.264,2.264,0,0,0,2.25,1.336,2.091,2.091,0,0,0,2.156-1.617,8.346,8.346,0,0,0,.246-2.355A5.047,5.047,0,0,0,206.342,41.821ZM204.256,23a7.482,7.482,0,0,1-3.211.645,6.957,6.957,0,0,1-2.719-.557,4.825,4.825,0,0,1-2-1.436l1.5-2.062a3.968,3.968,0,0,0,3.071,1.418,2.9,2.9,0,0,0,2.1-.721,2.7,2.7,0,0,0,.75-2.045v-0.68a3.917,3.917,0,0,1-3.082,1.324,4.487,4.487,0,0,1-3.7-1.787,7.425,7.425,0,0,1-1.412-4.74V12.218a7.436,7.436,0,0,1,1.388-4.7,4.5,4.5,0,0,1,3.745-1.781,3.948,3.948,0,0,1,3.246,1.43l0.14-1.2h3.071V18.23a5.419,5.419,0,0,1-.756,2.895A4.856,4.856,0,0,1,204.256,23ZM203.74,9.654a2.346,2.346,0,0,0-2.191-1.162,2.212,2.212,0,0,0-1.916,1,5.214,5.214,0,0,0-.7,2.981,4.627,4.627,0,0,0,.691,2.705,2.2,2.2,0,0,0,1.9.98,2.351,2.351,0,0,0,2.215-1.162V9.654Zm-12.187-5.2a1.922,1.922,0,0,1-1.377-.492,1.662,1.662,0,0,1-.522-1.266,1.667,1.667,0,0,1,.51-1.254,2.2,2.2,0,0,1,2.772,0,1.66,1.66,0,0,1,.515,1.254,1.665,1.665,0,0,1-.521,1.266A1.925,1.925,0,0,1,191.553,4.449Zm-1.7,1.523h3.4v12.68h-3.4V5.972ZM190.369,51.1h-3.387V42.987a2.2,2.2,0,0,0-.468-1.565,2.1,2.1,0,0,0-1.559-.486,2.329,2.329,0,0,0-2.144,1.219V51.1h-3.387V38.417h3.187l0.106,1.465a4.426,4.426,0,0,1,3.644-1.7,3.679,3.679,0,0,1,3,1.184,5.52,5.52,0,0,1,1.008,3.539V51.1Zm-7.687-40.067a14.71,14.71,0,0,1,2.132.568q2.684,0.984,2.684,3.41a3.307,3.307,0,0,1-1.488,2.807,6.421,6.421,0,0,1-3.844,1.072,6.7,6.7,0,0,1-2.83-.568,4.751,4.751,0,0,1-1.94-1.559,3.626,3.626,0,0,1-.7-2.139H179.9A1.767,1.767,0,0,0,180.572,16a2.649,2.649,0,0,0,1.664.48,2.452,2.452,0,0,0,1.471-.369,1.149,1.149,0,0,0,.5-0.967,1.091,1.091,0,0,0-.615-0.978,7,7,0,0,0-1.975-.639q-4.524-.949-4.523-3.844a3.485,3.485,0,0,1,1.4-2.818,5.649,5.649,0,0,1,3.662-1.131,6.082,6.082,0,0,1,3.862,1.137,3.585,3.585,0,0,1,1.447,2.953h-3.387a1.637,1.637,0,0,0-.469-1.2,1.981,1.981,0,0,0-1.464-.475,2.029,2.029,0,0,0-1.325.387,1.222,1.222,0,0,0-.468.984,1.042,1.042,0,0,0,.533.908A5.478,5.478,0,0,0,182.682,11.029Zm-5.789,37.138a6.038,6.038,0,0,0,.5,2.73v0.2h-3.422a3.73,3.73,0,0,1-.34-1.137,4.1,4.1,0,0,1-3.2,1.371,4.5,4.5,0,0,1-3.088-1.078,3.466,3.466,0,0,1-1.225-2.719,3.584,3.584,0,0,1,1.494-3.094,7.375,7.375,0,0,1,4.319-1.09h1.558V42.624a2.089,2.089,0,0,0-.451-1.406,1.775,1.775,0,0,0-1.424-.527,2.019,2.019,0,0,0-1.342.41,1.394,1.394,0,0,0-.486,1.125H166.4a3.4,3.4,0,0,1,.68-2.039,4.494,4.494,0,0,1,1.922-1.471,7.005,7.005,0,0,1,2.789-.533,5.536,5.536,0,0,1,3.721,1.178,4.12,4.12,0,0,1,1.377,3.311v5.5Zm-3.4-2.836h-1.265q-2.544,0-2.707,1.758l-0.012.2a1.355,1.355,0,0,0,.445,1.043,1.729,1.729,0,0,0,1.219.41,2.919,2.919,0,0,0,1.383-.334,2.191,2.191,0,0,0,.937-0.9v-2.18Zm-5.162-29.925a2.993,2.993,0,0,0,2.092.75,3.653,3.653,0,0,0,3.058-1.418l1.665,1.863a5.087,5.087,0,0,1-2.063,1.682,6.768,6.768,0,0,1-2.883.6,6.225,6.225,0,0,1-4.541-1.711,6.081,6.081,0,0,1-1.752-4.558V12.289a7.649,7.649,0,0,1,.739-3.416,5.419,5.419,0,0,1,2.091-2.32,5.874,5.874,0,0,1,3.088-.814,5.262,5.262,0,0,1,4.1,1.641,6.667,6.667,0,0,1,1.494,4.652v1.383h-8.074A3.143,3.143,0,0,0,168.332,15.406Zm3.756-4.3V10.834a2.526,2.526,0,0,0-.609-1.748,2.185,2.185,0,0,0-1.664-.618,2.115,2.115,0,0,0-1.635.683,3.534,3.534,0,0,0-.8,1.954h4.711Zm-10.57,32.034a2.328,2.328,0,0,0-.61-1.608,2.265,2.265,0,0,0-3.334.244,5,5,0,0,0-.6,2.8v0.352a5.067,5.067,0,0,0,.6,2.817,2.066,2.066,0,0,0,1.817.857,2.218,2.218,0,0,0,1.523-.516,1.807,1.807,0,0,0,.61-1.371h3.175a4.337,4.337,0,0,1-.7,2.361,4.643,4.643,0,0,1-1.892,1.664,5.928,5.928,0,0,1-2.655.592,5.5,5.5,0,0,1-4.289-1.728,6.839,6.839,0,0,1-1.57-4.775V44.6a6.763,6.763,0,0,1,1.559-4.676,5.439,5.439,0,0,1,4.277-1.746,5.332,5.332,0,0,1,3.814,1.354,4.79,4.79,0,0,1,1.459,3.6h-3.175Zm-3-25.835a3.986,3.986,0,0,1-3.258,1.582,4.3,4.3,0,0,1-3.592-1.764,7.889,7.889,0,0,1-1.353-4.9,7.64,7.64,0,0,1,1.33-4.723,4.314,4.314,0,0,1,3.638-1.758,3.884,3.884,0,0,1,3.059,1.383V0.652h3.4v18h-3.058Zm-0.176-7.486a2.235,2.235,0,0,0-2.192-1.326q-2.448,0-2.449,3.979a5.005,5.005,0,0,0,.621,2.735,2.024,2.024,0,0,0,1.805.951,2.266,2.266,0,0,0,2.215-1.326V9.818ZM142.287,49.749a3.986,3.986,0,0,1-3.258,1.582,4.3,4.3,0,0,1-3.591-1.764,7.883,7.883,0,0,1-1.354-4.9,7.64,7.64,0,0,1,1.33-4.723,4.317,4.317,0,0,1,3.639-1.758,3.882,3.882,0,0,1,3.058,1.383V33.1h3.4v18h-3.059Zm-0.176-7.486a2.233,2.233,0,0,0-2.191-1.326q-2.449,0-2.449,3.979a5.006,5.006,0,0,0,.621,2.735,2.022,2.022,0,0,0,1.8.951,2.265,2.265,0,0,0,2.214-1.326V42.262Zm-3.1-24.747a4.1,4.1,0,0,1-3.2,1.371,4.5,4.5,0,0,1-3.088-1.078,3.466,3.466,0,0,1-1.225-2.719A3.583,3.583,0,0,1,132.988,12a7.375,7.375,0,0,1,4.319-1.09h1.558V10.179a2.088,2.088,0,0,0-.451-1.406,1.775,1.775,0,0,0-1.424-.527,2.016,2.016,0,0,0-1.341.41,1.392,1.392,0,0,0-.487,1.125h-3.386a3.4,3.4,0,0,1,.679-2.039,4.5,4.5,0,0,1,1.922-1.471,7.005,7.005,0,0,1,2.789-.533,5.534,5.534,0,0,1,3.721,1.178,4.12,4.12,0,0,1,1.377,3.311v5.5a6.052,6.052,0,0,0,.5,2.73v0.2h-3.422A3.73,3.73,0,0,1,139.006,17.515Zm-0.141-4.629H137.6q-2.544,0-2.707,1.758l-0.012.2a1.355,1.355,0,0,0,.445,1.043,1.73,1.73,0,0,0,1.219.41,2.917,2.917,0,0,0,1.383-.334,2.19,2.19,0,0,0,.937-0.9v-2.18Zm-6.82,38.21h-3.387V42.987a2.2,2.2,0,0,0-.468-1.565,2.1,2.1,0,0,0-1.559-.486,2.331,2.331,0,0,0-2.145,1.219V51.1H121.1V38.417h3.187l0.106,1.465a4.426,4.426,0,0,1,3.644-1.7,3.679,3.679,0,0,1,3,1.184,5.52,5.52,0,0,1,1.008,3.539V51.1Zm-15.029-35.69a2.993,2.993,0,0,0,2.092.75,3.655,3.655,0,0,0,3.058-1.418L123.83,16.6a5.084,5.084,0,0,1-2.062,1.682,6.768,6.768,0,0,1-2.883.6,6.223,6.223,0,0,1-4.541-1.711,6.081,6.081,0,0,1-1.752-4.558V12.289a7.663,7.663,0,0,1,.738-3.416,5.421,5.421,0,0,1,2.092-2.32,5.872,5.872,0,0,1,3.088-.814,5.263,5.263,0,0,1,4.1,1.641,6.667,6.667,0,0,1,1.494,4.652v1.383h-8.074A3.143,3.143,0,0,0,117.016,15.406Zm3.756-4.3V10.834a2.522,2.522,0,0,0-.61-1.748,2.182,2.182,0,0,0-1.664-.618,2.116,2.116,0,0,0-1.635.683,3.533,3.533,0,0,0-.8,1.954h4.711Zm-14.743,7.781a3.957,3.957,0,0,1-3.292-1.582l-0.153,1.348H99.537v-18h3.387V7.109a3.857,3.857,0,0,1,3.082-1.371,4.345,4.345,0,0,1,3.639,1.705,7.688,7.688,0,0,1,1.318,4.8v0.188a7.679,7.679,0,0,1-1.3,4.752A4.308,4.308,0,0,1,106.029,18.886Zm0.938-9.51a2.061,2.061,0,0,0-1.816-.885,2.234,2.234,0,0,0-2.227,1.324v5a2.264,2.264,0,0,0,2.25,1.336,2.091,2.091,0,0,0,2.156-1.617,8.345,8.345,0,0,0,.246-2.355A5.047,5.047,0,0,0,106.967,9.377ZM100.44,40.9H98.272v6.328a1.511,1.511,0,0,0,.27,1.008,1.353,1.353,0,0,0,1.031.3,5.4,5.4,0,0,0,1-.082v2.566a6.978,6.978,0,0,1-2.051.3q-3.563,0-3.633-3.6V40.9H93.033V38.417h1.852V35.3h3.387v3.117h2.168V40.9ZM89.729,36.893a1.923,1.923,0,0,1-1.377-.492,1.8,1.8,0,0,1-.012-2.52,2.2,2.2,0,0,1,2.771,0,1.789,1.789,0,0,1-.006,2.52A1.924,1.924,0,0,1,89.729,36.893ZM85.475,18.886A5.69,5.69,0,0,1,81.1,17.129a6.744,6.744,0,0,1-1.635-4.781V12.2a7.517,7.517,0,0,1,.727-3.363,5.318,5.318,0,0,1,2.092-2.285,6.1,6.1,0,0,1,3.17-.809,5.774,5.774,0,0,1,4.189,1.57,6.3,6.3,0,0,1,1.811,4.266l0.023,0.867a6.628,6.628,0,0,1-1.629,4.682A5.662,5.662,0,0,1,85.475,18.886ZM87.4,9.443a2.248,2.248,0,0,0-1.945-.974,2.211,2.211,0,0,0-1.922.968,5.274,5.274,0,0,0-.68,3,4.739,4.739,0,0,0,.68,2.764,2.442,2.442,0,0,0,3.867.012,5.186,5.186,0,0,0,.691-3.022A4.693,4.693,0,0,0,87.4,9.443ZM76.533,18.886q-3.563,0-3.633-3.6V8.457H71.049V5.972H72.9V2.855h3.387V5.972h2.168V8.457H76.287v6.328a1.51,1.51,0,0,0,.269,1.008,1.353,1.353,0,0,0,1.031.3,5.4,5.4,0,0,0,1-.082v2.566A6.973,6.973,0,0,1,76.533,18.886Zm-5.32,19.53V51.1H68.026l-0.094-1.289a4.247,4.247,0,0,1-3.469,1.523,4,4,0,0,1-3.111-1.172,5,5,0,0,1-1.1-3.434V38.417h3.387v8.2q0,1.983,1.8,1.983a2.445,2.445,0,0,0,2.367-1.2V38.417h3.4Zm-8.766-19.53q-3.562,0-3.633-3.6V8.457H56.963V5.972h1.852V2.855H62.2V5.972h2.168V8.457H62.2v6.328a1.511,1.511,0,0,0,.27,1.008,1.353,1.353,0,0,0,1.031.3,5.4,5.4,0,0,0,1-.082v2.566A6.974,6.974,0,0,1,62.448,18.886Zm-4.2,26a6.628,6.628,0,0,1-1.629,4.682,6.313,6.313,0,0,1-8.748.006,6.744,6.744,0,0,1-1.635-4.781V44.639a7.519,7.519,0,0,1,.727-3.363,5.318,5.318,0,0,1,2.092-2.285,6.1,6.1,0,0,1,3.17-.809,5.775,5.775,0,0,1,4.19,1.57,6.3,6.3,0,0,1,1.81,4.266Zm-4.078-3a2.248,2.248,0,0,0-1.945-.974,2.211,2.211,0,0,0-1.922.968,5.273,5.273,0,0,0-.68,3,4.738,4.738,0,0,0,.68,2.764,2.442,2.442,0,0,0,3.867.012,5.186,5.186,0,0,0,.691-3.022A4.693,4.693,0,0,0,54.174,41.887Zm-1.98-31.344a2.2,2.2,0,0,0-.469-1.564,2.1,2.1,0,0,0-1.559-.486,2.33,2.33,0,0,0-2.145,1.219v8.941H44.635V5.972h3.188l0.105,1.465a4.427,4.427,0,0,1,3.645-1.7,3.679,3.679,0,0,1,3,1.184,5.523,5.523,0,0,1,1.008,3.539v8.191H52.194V10.543ZM40.827,43.069a2.356,2.356,0,0,0-.469-1.611,2.01,2.01,0,0,0-1.559-.522,2.305,2.305,0,0,0-2.156,1.148V51.1H33.256v-18h3.387v6.7a4.227,4.227,0,0,1,3.387-1.617q4.125,0,4.184,4.793V51.1H40.827V43.069ZM38.846,17.515a4.1,4.1,0,0,1-3.2,1.371,4.5,4.5,0,0,1-3.088-1.078,3.467,3.467,0,0,1-1.225-2.719A3.583,3.583,0,0,1,32.828,12a7.374,7.374,0,0,1,4.318-1.09h1.559V10.179a2.09,2.09,0,0,0-.451-1.406,1.775,1.775,0,0,0-1.424-.527,2.018,2.018,0,0,0-1.342.41A1.393,1.393,0,0,0,35,9.781H31.616a3.4,3.4,0,0,1,.68-2.039,4.493,4.493,0,0,1,1.922-1.471,7,7,0,0,1,2.789-.533,5.534,5.534,0,0,1,3.721,1.178A4.12,4.12,0,0,1,42.1,10.226v5.5a6.06,6.06,0,0,0,.5,2.73v0.2H39.186A3.759,3.759,0,0,1,38.846,17.515Zm-0.141-4.629H37.44q-2.543,0-2.707,1.758l-0.012.2a1.355,1.355,0,0,0,.445,1.043,1.729,1.729,0,0,0,1.219.41,2.917,2.917,0,0,0,1.383-.334,2.194,2.194,0,0,0,.938-0.9v-2.18ZM24.092,18.652l-2.4-7.981-2.4,7.981H16.463L13.229,5.972H16.5l1.652,8.062,2.32-8.062H22.92l2.309,8.074,1.664-8.074h3.27l-3.234,12.68H24.092Zm-6.9,19.765L13.955,51.1H11.12l-2.4-7.98-2.4,7.98H3.491L0.256,38.417h3.27l1.652,8.063L7.5,38.417H9.948l2.309,8.074,1.664-8.074h3.27ZM1.674,1.59H5.19V18.652H1.674V1.59Zm19.066,31.8a1.92,1.92,0,0,1,1.383.492,1.789,1.789,0,0,1-.006,2.52,2.172,2.172,0,0,1-2.754,0,1.8,1.8,0,0,1-.012-2.52A1.915,1.915,0,0,1,20.741,33.389ZM22.44,51.1h-3.4V38.417h3.4V51.1ZM25.9,35.3h3.387v3.117h2.168V40.9H29.284v6.328a1.511,1.511,0,0,0,.27,1.008,1.353,1.353,0,0,0,1.031.3,5.391,5.391,0,0,0,1-.082v2.566a6.973,6.973,0,0,1-2.051.3q-3.562,0-3.633-3.6V40.9H24.045V38.417H25.9V35.3Zm48.539,0h3.387v3.117h2.168V40.9H77.823v6.328a1.511,1.511,0,0,0,.27,1.008,1.353,1.353,0,0,0,1.031.3,5.391,5.391,0,0,0,1-.082v2.566a6.973,6.973,0,0,1-2.051.3q-3.562,0-3.633-3.6V40.9H72.584V38.417h1.852V35.3ZM91.428,51.1h-3.4V38.417h3.4V51.1Zm22.184-7.746h1.558V42.624a2.089,2.089,0,0,0-.451-1.406,1.776,1.776,0,0,0-1.424-.527,2.019,2.019,0,0,0-1.342.41,1.394,1.394,0,0,0-.486,1.125H108.08a3.4,3.4,0,0,1,.68-2.039,4.494,4.494,0,0,1,1.922-1.471,7.005,7.005,0,0,1,2.789-.533,5.538,5.538,0,0,1,3.721,1.178,4.123,4.123,0,0,1,1.377,3.311v5.5a6.054,6.054,0,0,0,.5,2.73v0.2h-3.421a3.73,3.73,0,0,1-.34-1.137,4.1,4.1,0,0,1-3.2,1.371,4.5,4.5,0,0,1-3.088-1.078,3.466,3.466,0,0,1-1.225-2.719,3.584,3.584,0,0,1,1.494-3.094A7.375,7.375,0,0,1,113.612,43.35Zm-1.981,4.98a1.729,1.729,0,0,0,1.219.41,2.919,2.919,0,0,0,1.383-.334,2.2,2.2,0,0,0,.937-0.9v-2.18H113.9q-2.542,0-2.707,1.758l-0.011.2A1.355,1.355,0,0,0,111.631,48.331ZM274.838,51.1h-3.4v-18h3.4v18Zm6.363,0h-3.4V38.417h3.4V51.1Zm37.137-17.707a1.917,1.917,0,0,1,1.382.492,1.79,1.79,0,0,1-.005,2.52,2.172,2.172,0,0,1-2.754,0,1.8,1.8,0,0,1-.012-2.52A1.916,1.916,0,0,1,318.338,33.389Zm1.7,17.707h-3.4V38.417h3.4V51.1Zm55.441-17.707a1.921,1.921,0,0,1,1.383.492,1.788,1.788,0,0,1-.006,2.52,2.172,2.172,0,0,1-2.754,0,1.8,1.8,0,0,1-.012-2.52A1.916,1.916,0,0,1,375.478,33.389Zm1.7,17.707h-3.4V38.417h3.4V51.1Zm27.41,0h-3.4v-18h3.4v18Zm50.426-12.68,2.356,7.887,2.343-7.887h3.633l-5.1,14.648-0.281.668a3.866,3.866,0,0,1-3.75,2.484,5.336,5.336,0,0,1-1.5-.223V53.428l0.516,0.012a2.786,2.786,0,0,0,1.435-.293,1.925,1.925,0,0,0,.745-0.973l0.4-1.043-4.441-12.715h3.644Zm57,1.512a3.138,3.138,0,0,1,2.824-1.746,3.555,3.555,0,0,1,1.055.152l-0.047,3.258a9.216,9.216,0,0,0-1.219-.094,2.48,2.48,0,0,0-2.519,1.3v8.3H508.72V38.417h3.2Zm20.3,7.688a1.949,1.949,0,0,1,1.377.5,1.706,1.706,0,0,1,.545,1.313,1.683,1.683,0,0,1-.539,1.295,1.959,1.959,0,0,1-1.383.5,1.939,1.939,0,0,1-1.371-.5,1.679,1.679,0,0,1-.539-1.295,1.7,1.7,0,0,1,.545-1.312A1.933,1.933,0,0,1,532.31,47.616Z" transform="translate(0 -0.656)"/>
  <path id="Dashboard" class="cls-4" d="M165.192,85.907a5.224,5.224,0,0,1-3.8,1.425H157.6V76.7h3.81A5.478,5.478,0,0,1,165.192,85.907Zm-1.575-6.412a3.132,3.132,0,0,0-2.28-.877h-1.665v6.8h1.65a3.181,3.181,0,0,0,2.295-.863A4,4,0,0,0,163.617,79.495Zm-10.14,7.837-2.085-4.095h-1.08v4.095h-2.085V76.7h4.155a3.326,3.326,0,0,1,2.46.93,3.174,3.174,0,0,1,.93,2.34,3.014,3.014,0,0,1-2.265,3.015l2.28,4.35h-2.31Zm0.18-7.35a1.4,1.4,0,0,0-.435-1.088,1.759,1.759,0,0,0-1.23-.4h-1.68v2.955h1.68a1.758,1.758,0,0,0,1.23-.4A1.381,1.381,0,0,0,153.657,79.982Zm-9.93,4.92h-4.32l-0.885,2.43h-2.19l4.08-10.635h2.4l4.05,10.635h-2.25Zm-2.16-5.91-1.47,4.02h2.94Zm-10.935,8.565a5.389,5.389,0,0,1-3.855-1.53,5.818,5.818,0,0,1,0-8.025,5.64,5.64,0,0,1,7.725,0,5.818,5.818,0,0,1,0,8.025A5.407,5.407,0,0,1,130.632,87.557Zm2.34-8.168a3.41,3.41,0,0,0-4.665,0,3.955,3.955,0,0,0,0,5.235,3.41,3.41,0,0,0,4.665,0A3.955,3.955,0,0,0,132.972,79.39Zm-8.925,4.972a2.781,2.781,0,0,1-.9,2.138,3.373,3.373,0,0,1-2.385.832h-4.11V76.7h3.825a3.357,3.357,0,0,1,2.378.8,2.691,2.691,0,0,1,.862,2.063,2.468,2.468,0,0,1-.427,1.433,2.129,2.129,0,0,1-1.118.847,2.3,2.3,0,0,1,1.335.877A2.605,2.605,0,0,1,124.047,84.362Zm-2.76-5.58a1.671,1.671,0,0,0-1.14-.345h-1.455v2.655h1.47a1.629,1.629,0,0,0,1.118-.352A1.414,1.414,0,0,0,121.287,78.782Zm0.278,4.41a1.628,1.628,0,0,0-1.163-.39h-1.71v2.8h1.68a1.741,1.741,0,0,0,1.185-.367,1.275,1.275,0,0,0,.42-1.013A1.358,1.358,0,0,0,121.565,83.192Zm-9.428-.27H107.5v4.41h-2.07V76.7h2.07v4.275h4.635V76.7h2.085V87.332h-2.085v-4.41Zm-11.429-1.785a3.82,3.82,0,0,1,2.19,1.132,2.9,2.9,0,0,1,.78,2,3.068,3.068,0,0,1-1.043,2.3,3.911,3.911,0,0,1-2.8.983,5.2,5.2,0,0,1-1.815-.3,3.506,3.506,0,0,1-1.3-.8,4.115,4.115,0,0,1-.773-1.065,3.358,3.358,0,0,1-.337-1.162l1.92-.51a2.109,2.109,0,0,0,.66,1.418,2.3,2.3,0,0,0,1.665.578,2,2,0,0,0,1.275-.36,1.152,1.152,0,0,0,.45-0.945,1.1,1.1,0,0,0-.338-0.8,1.8,1.8,0,0,0-.952-0.457l-1.485-.3a3.807,3.807,0,0,1-2.04-1.057,2.766,2.766,0,0,1-.75-1.987,3.035,3.035,0,0,1,1.095-2.363,4.312,4.312,0,0,1,5.272-.135,3.52,3.52,0,0,1,1.148,1.927l-1.86.57a2.027,2.027,0,0,0-.57-1.05,1.858,1.858,0,0,0-1.365-.45,1.782,1.782,0,0,0-1.2.4,1.2,1.2,0,0,0,.69,2.153ZM91.933,84.9h-4.32l-0.885,2.43h-2.19L88.618,76.7h2.4l4.05,10.635h-2.25Zm-2.16-5.91-1.47,4.02h2.94Zm-10.725,8.34h-3.8V76.7h3.81A5.32,5.32,0,1,1,79.048,87.332Zm2.22-7.837a3.133,3.133,0,0,0-2.28-.877H77.323v6.8h1.65a3.181,3.181,0,0,0,2.295-.863A4,4,0,0,0,81.268,79.495Z" transform="translate(0 -0.656)"/>
  <path id="CRAFT" class="cls-4" d="M402.327,78.662v8.67h-2.085v-8.67h-3.36V76.7h8.805v1.965h-3.36Zm-11.37,2.625h4.14v1.9h-4.125v4.14h-2.085V76.7h6.72v1.965h-4.65v2.625ZM384.388,84.9h-4.32l-0.885,2.43h-2.19l4.08-10.635h2.4l4.05,10.635h-2.25Zm-2.16-5.91-1.47,4.02h2.94Zm-8.265,8.34-2.085-4.095H370.8v4.095h-2.085V76.7h4.155a3.327,3.327,0,0,1,2.46.93,3.174,3.174,0,0,1,.93,2.34,3.014,3.014,0,0,1-2.265,3.015l2.28,4.35h-2.31Zm0.18-7.35a1.4,1.4,0,0,0-.435-1.088,1.761,1.761,0,0,0-1.23-.4H370.8v2.955h1.68a1.759,1.759,0,0,0,1.23-.4A1.381,1.381,0,0,0,374.143,79.982Zm-12.075,5.55a2.932,2.932,0,0,0,2-.653,3.085,3.085,0,0,0,.99-1.522l1.935,0.585a4.29,4.29,0,0,1-.518,1.253,5.456,5.456,0,0,1-.952,1.155,4.309,4.309,0,0,1-1.485.877,5.669,5.669,0,0,1-1.965.33,5.543,5.543,0,1,1-.03-11.085,4.929,4.929,0,0,1,3.277,1.028,4.734,4.734,0,0,1,1.6,2.5l-1.95.615a2.852,2.852,0,0,0-.93-1.515,2.928,2.928,0,0,0-2-.63,3.217,3.217,0,0,0-2.3.93,3.456,3.456,0,0,0-.975,2.625,3.42,3.42,0,0,0,.967,2.565A3.218,3.218,0,0,0,362.068,85.532Z" transform="translate(0 -0.656)"/>
  <path id="CONTACT" class="cls-4" d="M258.657,78.662v8.67h-2.085v-8.67h-3.36V76.7h8.805v1.965h-3.36Zm-10.995,6.87a2.932,2.932,0,0,0,2-.653,3.094,3.094,0,0,0,.991-1.522l1.934,0.585a4.287,4.287,0,0,1-.517,1.253,5.487,5.487,0,0,1-.952,1.155,4.314,4.314,0,0,1-1.486.877,5.665,5.665,0,0,1-1.965.33,5.543,5.543,0,1,1-.03-11.085A4.931,4.931,0,0,1,250.91,77.5a4.74,4.74,0,0,1,1.6,2.5l-1.95.615a2.854,2.854,0,0,0-.931-1.515,2.928,2.928,0,0,0-2-.63,3.213,3.213,0,0,0-2.294.93,3.953,3.953,0,0,0-.008,5.19A3.216,3.216,0,0,0,247.662,85.532Zm-8.8-.63h-4.32l-0.885,2.43h-2.19l4.08-10.635h2.4l4.05,10.635h-2.25Zm-2.16-5.91-1.47,4.02h2.94Zm-8.01,8.34H226.6v-8.67h-3.36V76.7h8.805v1.965h-3.36v8.67Zm-13.9-7.545v7.545h-2.07V76.7h2.58l4.425,7.035V76.7h2.07V87.332h-2.175Zm-9.345,7.77a5.389,5.389,0,0,1-3.855-1.53,5.818,5.818,0,0,1,0-8.025,5.64,5.64,0,0,1,7.725,0,5.818,5.818,0,0,1,0,8.025A5.407,5.407,0,0,1,205.438,87.557Zm2.34-8.168a3.41,3.41,0,0,0-4.665,0,3.955,3.955,0,0,0,0,5.235,3.41,3.41,0,0,0,4.665,0A3.955,3.955,0,0,0,207.778,79.39Zm-13.71,6.142a2.932,2.932,0,0,0,1.995-.653,3.085,3.085,0,0,0,.99-1.522l1.935,0.585a4.29,4.29,0,0,1-.518,1.253,5.456,5.456,0,0,1-.952,1.155,4.309,4.309,0,0,1-1.485.877,5.669,5.669,0,0,1-1.965.33,5.543,5.543,0,1,1-.03-11.085,4.929,4.929,0,0,1,3.277,1.028,4.734,4.734,0,0,1,1.6,2.5l-1.95.615a2.852,2.852,0,0,0-.93-1.515,2.928,2.928,0,0,0-1.995-.63,3.217,3.217,0,0,0-2.3.93,3.456,3.456,0,0,0-.975,2.625,3.42,3.42,0,0,0,.967,2.565A3.218,3.218,0,0,0,194.068,85.532Z" transform="translate(0 -0.656)"/>
  <path id="ABOUT" class="cls-4" d="M331.247,78.662v8.67h-2.085v-8.67H325.8V76.7h8.805v1.965h-3.36Zm-10.935,8.91a4.165,4.165,0,0,1-2.925-1.058,3.8,3.8,0,0,1-1.155-2.948V76.7h2.07v6.72A2.179,2.179,0,0,0,318.835,85a1.964,1.964,0,0,0,1.477.547A1.986,1.986,0,0,0,321.805,85a2.179,2.179,0,0,0,.532-1.582V76.7h2.07v6.87a3.8,3.8,0,0,1-1.155,2.948A4.185,4.185,0,0,1,320.312,87.572Zm-11.25-.015a5.389,5.389,0,0,1-3.855-1.53,5.818,5.818,0,0,1,0-8.025,5.64,5.64,0,0,1,7.725,0,5.818,5.818,0,0,1,0,8.025A5.407,5.407,0,0,1,309.062,87.557Zm2.34-8.168a3.41,3.41,0,0,0-4.665,0,3.955,3.955,0,0,0,0,5.235,3.41,3.41,0,0,0,4.665,0A3.955,3.955,0,0,0,311.4,79.39Zm-8.924,4.972a2.781,2.781,0,0,1-.9,2.138,3.373,3.373,0,0,1-2.385.832h-4.11V76.7h3.825a3.356,3.356,0,0,1,2.377.8,2.691,2.691,0,0,1,.863,2.063,2.469,2.469,0,0,1-.428,1.433,2.13,2.13,0,0,1-1.117.847,2.3,2.3,0,0,1,1.335.877A2.605,2.605,0,0,1,302.478,84.362Zm-2.76-5.58a1.675,1.675,0,0,0-1.14-.345h-1.455v2.655h1.47a1.626,1.626,0,0,0,1.117-.352A1.413,1.413,0,0,0,299.718,78.782ZM300,83.192a1.627,1.627,0,0,0-1.162-.39h-1.71v2.8h1.68a1.743,1.743,0,0,0,1.185-.367,1.278,1.278,0,0,0,.42-1.013A1.359,1.359,0,0,0,300,83.192Zm-9.412,1.71h-4.32l-0.885,2.43h-2.19l4.08-10.635h2.4l4.05,10.635h-2.25Zm-2.16-5.91-1.47,4.02h2.94Z" transform="translate(0 -0.656)"/>
  <g id="TOP">
    <path class="cls-5" d="M97.682,117.6L92,111.914V113h0v27H90V109h2v0.086l7.1,7.1Zm-13.951,9.836a6.392,6.392,0,0,1-2.765.568H80.49a6.439,6.439,0,0,1-2.761-.557A4.191,4.191,0,0,1,75.9,125.85a4.707,4.707,0,0,1-.007-4.742,4.231,4.231,0,0,1,1.82-1.612,6.252,6.252,0,0,1,2.721-.578h0.527a6.41,6.41,0,0,1,2.772.567,4.231,4.231,0,0,1,1.838,1.6,4.7,4.7,0,0,1,0,4.739A4.224,4.224,0,0,1,83.731,127.432Zm-0.2-5.68a4.44,4.44,0,0,0-2.523-.608H80.49a4.539,4.539,0,0,0-2.534.6,2.1,2.1,0,0,0-.033,3.428,4.523,4.523,0,0,0,2.531.6h0.52a4.491,4.491,0,0,0,2.549-.6A2.122,2.122,0,0,0,83.534,121.752Zm0.751-7.126H75.4v-2.2h8.884v-3.223h1.78v8.687h-1.78v-3.267Zm1.78,19.431a4.817,4.817,0,0,1-.439,2.113,3.236,3.236,0,0,1-1.249,1.4,3.484,3.484,0,0,1-1.842.491,3.063,3.063,0,0,1-2.472-1.073,4.467,4.467,0,0,1-.9-2.97v-1.926H75.4v-2.2H86.064v4.161Zm-1.78-1.963H80.937v1.963a1.929,1.929,0,0,0,.41,1.329,1.492,1.492,0,0,0,1.172.458,1.758,1.758,0,0,0,1.267-.462,1.722,1.722,0,0,0,.5-1.274v-2.014Z" transform="translate(0 -0.656)"/>
    <g id="_2" data-name="+">
      <circle class="cls-6" cx="8" cy="177.344" r="8"/>
      <path id="PLUS" class="cls-7" d="M12,179H9v3H7v-3H4v-2H7v-3H9v3h3v2Z" transform="translate(0 -0.656)"/>
    </g>
  </g>
  <g id="ARROW">
    <path class="cls-8" d="M54,76s8.56,50.579-52,69" transform="translate(0 -0.656)"/>
    <path class="cls-8" d="M6.036,136.67l-4.5,7.794,7.794,4.5" transform="translate(0 -0.656)"/>
  </g>
  <g id="ICON">
    <path id="Polygon_1" data-name="Polygon 1" class="cls-9" d="M103,188H75v-9h3v6h24v-6h3v9h-2Zm-13.507-7.991-6.507-7.017H88V161h3v11.992h5Z" transform="translate(0 -0.656)"/>
    <path id="ARROW-2" data-name="ARROW" class="cls-10" d="M467.965,116.419l0.04,0.04-0.04.04v0.713h-0.722l-0.041.04-0.041-.04H435.032v-1.121h30.994l-6.051-5.971,0.8-.792,6.854,6.763h0.333v0.328Zm-51.7,4.8h-2.356v-9.666h-3.8v-2.191h9.948v2.191h-3.8v9.666Zm-12.506-6.74h4.677V116.6h-4.66v4.616H401.42V109.362h7.592v2.191h-5.253v2.926Zm-7.084,4.031H391.8l-1,2.709h-2.474l4.609-11.857h2.712l4.575,11.857h-2.542Zm-2.44-6.589-1.66,4.482H395.9Zm-9,9.3-2.356-4.566h-1.22v4.566h-2.355V109.362H384a3.787,3.787,0,0,1,2.779,1.037,3.515,3.515,0,0,1,1.051,2.609,3.4,3.4,0,0,1-.687,2.132,3.465,3.465,0,0,1-1.872,1.229l2.575,4.85h-2.609Zm0.2-8.195a1.553,1.553,0,0,0-.491-1.212,2.007,2.007,0,0,0-1.39-.443h-1.9v3.294h1.9a2,2,0,0,0,1.39-.443A1.531,1.531,0,0,0,385.44,113.024Zm-13.3,6.188a3.341,3.341,0,0,0,2.254-.727,3.438,3.438,0,0,0,1.119-1.7l2.186,0.652a4.746,4.746,0,0,1-.585,1.4,6.087,6.087,0,0,1-1.076,1.287,4.873,4.873,0,0,1-1.678.979,6.483,6.483,0,0,1-2.22.368,6.085,6.085,0,0,1-4.363-1.706,6.458,6.458,0,0,1,.017-8.939,6.046,6.046,0,0,1,4.313-1.714,5.616,5.616,0,0,1,3.7,1.146,5.268,5.268,0,0,1,1.805,2.784l-2.2.686a3.167,3.167,0,0,0-1.051-1.689,3.337,3.337,0,0,0-2.253-.7,3.659,3.659,0,0,0-2.593,1.037,4.361,4.361,0,0,0-.009,5.786A3.658,3.658,0,0,0,372.137,119.212Zm-12.972.644a5.61,5.61,0,0,1-1.881,1.179,6.021,6.021,0,0,1-4.321,0,5.61,5.61,0,0,1-1.881-1.179,5.8,5.8,0,0,1-1.322-1.923,7.188,7.188,0,0,1,0-5.268,5.9,5.9,0,0,1,1.322-1.932,5.554,5.554,0,0,1,1.881-1.187,6.021,6.021,0,0,1,4.321,0,5.554,5.554,0,0,1,1.881,1.187,6,6,0,0,1,1.33,1.932,7.07,7.07,0,0,1,0,5.268A5.894,5.894,0,0,1,359.165,119.856Zm0.348-6.8a4.861,4.861,0,0,0-1.076-1.622,4.517,4.517,0,0,0-1.534-.987,4.907,4.907,0,0,0-3.559,0,4.5,4.5,0,0,0-1.533.987,4.727,4.727,0,0,0-1.068,1.622,5.858,5.858,0,0,0-.4,2.241,5.79,5.79,0,0,0,.4,2.232,4.74,4.74,0,0,0,1.068,1.614,4.5,4.5,0,0,0,1.533.987,4.907,4.907,0,0,0,3.559,0,4.517,4.517,0,0,0,1.534-.987,4.876,4.876,0,0,0,1.076-1.614,5.7,5.7,0,0,0,.406-2.232A5.762,5.762,0,0,0,359.513,113.058Zm-14.557,8.161h-1.085V110.332h-4.236v-0.97h9.575v0.97h-4.254v10.887Zm-11.871-1.363a5.61,5.61,0,0,1-1.881,1.179,6.021,6.021,0,0,1-4.321,0A5.61,5.61,0,0,1,325,119.856a5.8,5.8,0,0,1-1.322-1.923,7.188,7.188,0,0,1,0-5.268A5.9,5.9,0,0,1,325,110.733a5.554,5.554,0,0,1,1.881-1.187,6.021,6.021,0,0,1,4.321,0,5.554,5.554,0,0,1,1.881,1.187,6,6,0,0,1,1.33,1.932,7.07,7.07,0,0,1,0,5.268A5.894,5.894,0,0,1,333.085,119.856Zm0.348-6.8a4.861,4.861,0,0,0-1.076-1.622,4.517,4.517,0,0,0-1.534-.987,4.907,4.907,0,0,0-3.559,0,4.5,4.5,0,0,0-1.533.987,4.727,4.727,0,0,0-1.068,1.622,5.858,5.858,0,0,0-.4,2.241,5.79,5.79,0,0,0,.4,2.232,4.74,4.74,0,0,0,1.068,1.614,4.5,4.5,0,0,0,1.533.987,4.907,4.907,0,0,0,3.559,0,4.517,4.517,0,0,0,1.534-.987,4.876,4.876,0,0,0,1.076-1.614,5.7,5.7,0,0,0,.406-2.232A5.762,5.762,0,0,0,333.433,113.058Zm-14.142-2.141a4.49,4.49,0,0,0-2.7-.8,4.847,4.847,0,0,0-1.762.326,4.352,4.352,0,0,0-1.509.978,4.836,4.836,0,0,0-1.059,1.622,6.556,6.556,0,0,0,0,4.5,4.9,4.9,0,0,0,1.051,1.622,4.5,4.5,0,0,0,3.16,1.321,4.522,4.522,0,0,0,1.992-.393,4,4,0,0,0,1.305-.978,3.712,3.712,0,0,0,.72-1.255,4.41,4.41,0,0,0,.237-1.237h-4.44v-0.97h5.457v5.569h-0.848l-0.1-2.291a3.968,3.968,0,0,1-.509.819,4.146,4.146,0,0,1-.864.811,4.813,4.813,0,0,1-1.262.627,5.324,5.324,0,0,1-1.72.251,5.6,5.6,0,0,1-2.068-.4,5.435,5.435,0,0,1-1.813-1.179,5.907,5.907,0,0,1-1.288-1.923,7.356,7.356,0,0,1,0-5.285,5.777,5.777,0,0,1,1.305-1.923,5.528,5.528,0,0,1,1.864-1.179,6,6,0,0,1,2.152-.4,6.077,6.077,0,0,1,1.8.259,5.391,5.391,0,0,1,1.508.727,5.147,5.147,0,0,1,1.161,1.121,4.843,4.843,0,0,1,.746,1.455l-0.966.4A4.189,4.189,0,0,0,319.291,110.917Z" transform="translate(0 -0.656)"/>
    <path id="Polygon_1_copy" data-name="Polygon 1 copy" class="cls-11" d="M143,188H115v-9h3v6h24v-6h3v9h-2Zm-13.507-7.991-6.507-7.017H128V161h3v11.992h5Z" transform="translate(0 -0.656)"/>
    <path class="cls-12" d="M479.346,125.98l-1.4-1.384,7.22-7.137-7.22-7.138,1.4-1.384,8.62,8.522Z" transform="translate(0 -0.656)"/>
  </g>
</svg>
