<svg xmlns="http://www.w3.org/2000/svg" width="1023.628" height="316.75" viewBox="0 0 1023.628 316.75">
  <defs>
    <style>
      .cls-1 {
        fill: #001eff;
      }

      .cls-1, .cls-2, .cls-3 {
        fill-rule: evenodd;
      }

      .cls-3 {
        fill: #df0019;
      }
    </style>
  </defs>
  <path class="cls-1" d="M40.813,10H13.188A3.157,3.157,0,0,0,10,13.125v18.75A3.157,3.157,0,0,0,13.188,35H40.813A3.157,3.157,0,0,0,44,31.875V13.125A3.157,3.157,0,0,0,40.813,10Zm0,3.125v2.657c-1.489,1.189-3.863,3.037-8.937,6.933-1.118.862-3.334,2.934-4.875,2.91-1.541.024-3.757-2.048-4.875-2.91-5.074-3.9-7.448-5.744-8.937-6.933V13.125H40.813ZM13.188,31.875V19.792c1.522,1.188,3.68,2.856,6.969,5.381,1.451,1.12,3.993,3.593,6.844,3.578,2.837,0.015,5.346-2.422,6.843-3.577,3.289-2.525,5.447-4.193,6.969-5.381V31.875H13.188Z" transform="translate(-9.563 -10)"/>
  <path class="cls-1" d="M82,27.168V38H76V27.894c0-2.54-.868-4.273-3.041-4.273a3.3,3.3,0,0,0-3.08,2.3,4.488,4.488,0,0,0-.2,1.532V38h-6s0.081-17.124,0-18.9h6v2.679c-0.012.02-.028,0.042-0.039,0.061H69.68V21.785a5.927,5.927,0,0,1,5.411-3.123C79.042,18.662,82,21.363,82,27.168ZM57.394,10A3.2,3.2,0,0,0,54,13.26a3.178,3.178,0,0,0,3.318,3.267h0.04a3.2,3.2,0,0,0,3.4-3.267A3.184,3.184,0,0,0,57.394,10ZM54.353,38h6v-18.9h-6V38Z" transform="translate(-9.563 -10)"/>
  <path id="_Then_Let_s" data-name=" Then Let’s" class="cls-2" d="M421.712,291.726q0-5.914-6.234-5.915a6.179,6.179,0,0,0-4.05,1.342,4.157,4.157,0,0,0-1.638,3.344,3.814,3.814,0,0,0,2,3.322,18.9,18.9,0,0,0,6.393,2.093,55.329,55.329,0,0,1,7.713,1.957q11.1,3.822,11.1,13.7,0,6.735-5.983,10.966t-15.494,4.232a26.771,26.771,0,0,1-11.284-2.276A18.858,18.858,0,0,1,396.5,318.3a14.011,14.011,0,0,1-2.775-8.236h14.333a5.926,5.926,0,0,0,2.275,4.983,9.363,9.363,0,0,0,5.6,1.57,7.356,7.356,0,0,0,4.709-1.275,4.071,4.071,0,0,0,1.57-3.321,3.543,3.543,0,0,0-2.047-3.14,31.222,31.222,0,0,0-7.781-2.457,35.464,35.464,0,0,1-9.465-3.344,15.85,15.85,0,0,1-5.688-5.028,12.011,12.011,0,0,1-1.956-6.78,13.607,13.607,0,0,1,5.6-11.171q5.6-4.391,14.651-4.391,9.738,0,15.653,4.414a13.8,13.8,0,0,1,5.915,11.6H421.712Zm-31.9-11.376-6.735-3.64a26.4,26.4,0,0,0,3.868-12.832v-7.917h11.193v7.417a20.06,20.06,0,0,1-2.434,9.032A27.167,27.167,0,0,1,389.815,280.35Zm-20.522,46.413q-7.917,0-11.694-3.732t-3.777-11.33V287.267h-6.279V276.619h6.279v-12.24h15.335v12.24h8.1v10.648h-8.1V309.79q0,2.776,1,3.868t3.958,1.092a22.489,22.489,0,0,0,3.822-.273v10.966A28.317,28.317,0,0,1,369.293,326.763Zm-51.054-14.2a10.7,10.7,0,0,0,7.19,2.366q7.279,0,11.375-5.1l7.008,8.281a19.59,19.59,0,0,1-8.122,6.3,27.458,27.458,0,0,1-11.308,2.344q-11.329,0-18.337-6.758t-7.007-17.586v-1.274a30.229,30.229,0,0,1,2.8-13.332A20.48,20.48,0,0,1,310,278.871a24.656,24.656,0,0,1,12.74-3.162q10.375,0,16.381,6.439t6.006,17.95v5.961H314.645A11.051,11.051,0,0,0,318.239,312.566Zm11.877-16.108v-1.183a7.6,7.6,0,0,0-1.866-5.711,7.428,7.428,0,0,0-5.6-2.024q-6.735,0-8.008,8.918h15.471ZM250.76,259.6h15.971v53.966h27.8v12.286H250.76V259.6Zm-47.778,35.173q0-3.731-1.5-5.483t-5.461-1.751a7.312,7.312,0,0,0-6.688,3.549v34.764H174V276.619h14.379l0.5,5.779q5.1-6.688,14.061-6.689,7.689,0,11.489,4.6t3.936,13.832v31.716h-15.38V294.774Zm-61.746,17.792a10.7,10.7,0,0,0,7.189,2.366q7.279,0,11.376-5.1l7.007,8.281a19.59,19.59,0,0,1-8.122,6.3,27.458,27.458,0,0,1-11.308,2.344q-11.329,0-18.337-6.758t-7.007-17.586v-1.274a30.229,30.229,0,0,1,2.8-13.332A20.486,20.486,0,0,1,133,278.871a24.656,24.656,0,0,1,12.74-3.162q10.375,0,16.381,6.439t6.006,17.95v5.961H137.641A11.047,11.047,0,0,0,141.236,312.566Zm11.876-16.108v-1.183a7.6,7.6,0,0,0-1.866-5.711,7.428,7.428,0,0,0-5.6-2.024q-6.733,0-8.008,8.918h15.471Zm-53.465-1.32q0-3.912-1.593-5.756t-5.415-1.842q-4.733,0-6.689,3v35.31H70.616V255.961H85.95V281.9a15.348,15.348,0,0,1,12.559-6.188q8.145,0,12.286,4.823t4.231,14.242v31.079H99.647V295.138Zm-54.6,30.715H29.073V271.932H9.552V259.6H64.928v12.331H45.044v53.921Z" transform="translate(-9.563 -10)"/>
  <path id="LINE" class="cls-3" d="M1017.81,291.726q0-5.914-6.23-5.915a6.171,6.171,0,0,0-4.05,1.342,4.164,4.164,0,0,0-1.64,3.344,3.822,3.822,0,0,0,2,3.322,18.972,18.972,0,0,0,6.4,2.093,55.718,55.718,0,0,1,7.71,1.957q11.1,3.822,11.1,13.7,0,6.735-5.98,10.966t-15.5,4.232a26.785,26.785,0,0,1-11.28-2.276,18.861,18.861,0,0,1-7.735-6.188,14.005,14.005,0,0,1-2.776-8.236h14.331a5.919,5.919,0,0,0,2.28,4.983,9.339,9.339,0,0,0,5.59,1.57,7.334,7.334,0,0,0,4.71-1.275,4.063,4.063,0,0,0,1.57-3.321,3.545,3.545,0,0,0-2.04-3.14,31.3,31.3,0,0,0-7.78-2.457,35.433,35.433,0,0,1-9.469-3.344,15.842,15.842,0,0,1-5.688-5.028,12,12,0,0,1-1.957-6.78,13.609,13.609,0,0,1,5.6-11.171q5.591-4.391,14.647-4.391,9.75,0,15.66,4.414a13.805,13.805,0,0,1,5.91,11.6h-15.38Zm-45.727,34.127-10.738-18.338-4.323,4.323v14.015H941.688V255.916h15.334v37.129L958.569,291l11.558-14.379H988.51l-17.246,20.249,18.383,28.985H972.083ZM931,290.133q-7.234,0-9.283,4.55v31.17H906.378V276.619h14.379l0.5,6.325q3.867-7.235,10.784-7.235a14.963,14.963,0,0,1,4.278.546L936.046,290.5ZM875.8,326.763q-10.512,0-16.882-6.3t-6.871-17.086L852,300.781a29.065,29.065,0,0,1,2.866-13.128,20.511,20.511,0,0,1,8.236-8.85,24.812,24.812,0,0,1,12.605-3.094q11.056,0,17.427,6.848t6.37,18.633v0.546q0,11.513-6.393,18.269T875.8,326.763Zm8.372-25.982q0-13.242-8.463-13.241-7.691,0-8.327,11.421l-0.046,2.775q0,6.827,2.139,10.011a7.124,7.124,0,0,0,6.325,3.185q8.19,0,8.372-12.6v-1.547Zm-60.291,25.072-8.144-29.213-8.191,29.213H794.579l-11.6-49.234h14.7l4.869,29.713,7.826-29.713h10.693L828.8,305.65l4.959-29.031h14.7l-11.6,49.234H823.882ZM636.964,296.334H761v8.027H636.964v-8.027Zm-53.606,16.232a10.7,10.7,0,0,0,7.19,2.366q7.279,0,11.375-5.1l7.008,8.281a19.59,19.59,0,0,1-8.122,6.3,27.458,27.458,0,0,1-11.308,2.344q-11.33,0-18.337-6.758t-7.007-17.586v-1.274a30.229,30.229,0,0,1,2.8-13.332,20.48,20.48,0,0,1,8.168-8.942,24.656,24.656,0,0,1,12.74-3.162q10.375,0,16.381,6.439t6.006,17.95v5.961H579.764A11.051,11.051,0,0,0,583.358,312.566Zm11.877-16.108v-1.183a7.6,7.6,0,0,0-1.866-5.711,7.428,7.428,0,0,0-5.6-2.024q-6.735,0-8.008,8.918h15.471Zm-62.612,16.108a10.7,10.7,0,0,0,7.19,2.366q7.28,0,11.375-5.1l7.008,8.281a19.59,19.59,0,0,1-8.122,6.3,27.458,27.458,0,0,1-11.308,2.344q-11.329,0-18.337-6.758t-7.008-17.586v-1.274a30.229,30.229,0,0,1,2.8-13.332,20.48,20.48,0,0,1,8.168-8.942,24.656,24.656,0,0,1,12.74-3.162q10.374,0,16.381,6.439t6.006,17.95v5.961H529.029A11.051,11.051,0,0,0,532.623,312.566ZM544.5,296.458v-1.183a7.6,7.6,0,0,0-1.866-5.711,7.428,7.428,0,0,0-5.6-2.024q-6.735,0-8.008,8.918H544.5Zm-58.243-10.647a6.177,6.177,0,0,0-4.05,1.342,4.157,4.157,0,0,0-1.638,3.344,3.814,3.814,0,0,0,2,3.322,18.891,18.891,0,0,0,6.393,2.093,55.329,55.329,0,0,1,7.713,1.957q11.1,3.822,11.1,13.7,0,6.735-5.983,10.966T486.3,326.763a26.768,26.768,0,0,1-11.284-2.276,18.858,18.858,0,0,1-7.736-6.188,14,14,0,0,1-2.775-8.236H478.84a5.926,5.926,0,0,0,2.275,4.983,9.363,9.363,0,0,0,5.6,1.57,7.356,7.356,0,0,0,4.709-1.275,4.071,4.071,0,0,0,1.57-3.321,3.544,3.544,0,0,0-2.048-3.14,31.192,31.192,0,0,0-7.781-2.457,35.469,35.469,0,0,1-9.464-3.344,15.842,15.842,0,0,1-5.688-5.028,12.011,12.011,0,0,1-1.956-6.78,13.608,13.608,0,0,1,5.6-11.171q5.6-4.391,14.652-4.391,9.736,0,15.653,4.414a13.8,13.8,0,0,1,5.915,11.6H492.49Q492.49,285.812,486.257,285.811Z" transform="translate(-9.563 -10)"/>
  <path id="Now_that_you_already_know_me_" data-name="Now that you  already know me," class="cls-2" d="M738.362,214.3l-0.046,9.874a24.681,24.681,0,0,1-2.684,10.647,27.053,27.053,0,0,1-6.689,8.873l-7.735-3.64,1.547-3.094a25.241,25.241,0,0,0,3.321-11.284V214.3h12.286Zm-47.868-1.729a10.7,10.7,0,0,0,7.189,2.366q7.279,0,11.376-5.1l7.007,8.281a19.59,19.59,0,0,1-8.122,6.3,27.458,27.458,0,0,1-11.308,2.344q-11.33,0-18.337-6.758t-7.007-17.586v-1.274a30.229,30.229,0,0,1,2.8-13.332,20.486,20.486,0,0,1,8.168-8.942A24.656,24.656,0,0,1,695,175.709q10.375,0,16.381,6.439t6.006,17.95v5.961H686.9A11.047,11.047,0,0,0,690.494,212.566Zm11.876-16.108v-1.183a7.6,7.6,0,0,0-1.866-5.711,7.428,7.428,0,0,0-5.6-2.024q-6.734,0-8.008,8.918H702.37Zm-53.693-1.684q0-3.775-1.274-5.5t-4.641-1.729a7.265,7.265,0,0,0-6.78,4.049l0.045,0.637v33.627H620.648V194.865q0-3.867-1.229-5.6t-4.687-1.729A7.354,7.354,0,0,0,608,191.589v34.264H592.664V176.619h14.378l0.5,5.779a16.928,16.928,0,0,1,14.06-6.689q9.327,0,12.6,7.417,5.005-7.416,14.47-7.417,14.97,0,15.38,18.11v32.034h-15.38V194.774ZM539.29,225.853l-8.145-29.213-8.191,29.213H509.986l-11.6-49.234h14.7l4.869,29.713,7.826-29.713h10.693L544.2,205.65l4.96-29.031h14.7l-11.6,49.234H539.29ZM539.335,113a15.807,15.807,0,0,1-13.15,6.234q-8.1,0-12.263-4.709t-4.163-13.537v-31.9h15.334v31.988q0,6.326,6.143,6.325,5.277,0,7.507-3.777V69.094h15.426v49.233H539.79Zm-59.79,6.234q-10.511,0-16.881-6.3t-6.871-17.086l-0.046-2.594a29.061,29.061,0,0,1,2.867-13.127,20.5,20.5,0,0,1,8.236-8.85,24.8,24.8,0,0,1,12.6-3.094q11.056,0,17.427,6.848t6.371,18.633v0.546q0,11.513-6.393,18.269T479.545,119.237Zm8.372-25.982q0-13.241-8.463-13.241-7.69,0-8.327,11.421l-0.045,2.776q0,6.825,2.138,10.01a7.125,7.125,0,0,0,6.325,3.186q8.19,0,8.372-12.6V93.255Zm-54.466,35.4q-4.276,9.555-15.107,9.556a24.04,24.04,0,0,1-6.324-.907V126.381h2a10.5,10.5,0,0,0,4.937-.933,5.67,5.67,0,0,0,2.525-3.348l1.229-3.278L405.6,69.094h16.381l7.781,27.756,8.19-27.756h16.426l-20.066,57.469ZM411.383,182.4q5.1-6.689,14.06-6.689,7.689,0,11.489,4.6t3.936,13.832v31.716h-15.38V194.774q0-3.731-1.5-5.483t-5.461-1.751a7.312,7.312,0,0,0-6.688,3.549v34.764H396.5V176.619h14.379Zm-35.037,43.455-10.739-18.338-4.322,4.323v14.015H345.95V155.916h15.335v37.129L362.832,191l11.557-14.379h18.383l-17.245,20.249,18.383,28.985H376.346Zm-3.458-106.616q-7.918,0-11.694-3.731t-3.777-11.33V79.741h-6.279V69.094h6.279V56.854h15.334v12.24h8.1V79.741h-8.1v22.524q0,2.775,1,3.868t3.959,1.092a22.5,22.5,0,0,0,3.822-.273v10.966A28.321,28.321,0,0,1,372.888,119.237Zm-41.18-5.324q-4.232,5.325-11.83,5.324a17.468,17.468,0,0,1-11.831-4.209,13.4,13.4,0,0,1-4.869-10.579q0-8.008,5.916-12.1t17.2-4.1h4.733V85.644q0-6.813-5.87-6.812-5.46,0-5.46,5.4H304.361a13.745,13.745,0,0,1,6.075-11.589q6.075-4.454,15.493-4.454t14.88,4.6q5.46,4.6,5.6,12.6v21.8q0.092,6.78,2.093,10.375v0.773H333.164A17.322,17.322,0,0,1,331.708,113.913Zm-0.682-17.472h-4.46q-8.008,0-8.008,7.189a4.388,4.388,0,0,0,1.411,3.39,5.1,5.1,0,0,0,3.594,1.3,8.554,8.554,0,0,0,4.755-1.229,7.7,7.7,0,0,0,2.708-2.776V96.441ZM298.582,234.088l-0.864,2.094q-4.278,9.555-15.107,9.555a24.044,24.044,0,0,1-6.325-.906V233.906h2a10.49,10.49,0,0,0,4.937-.933,5.665,5.665,0,0,0,2.526-3.347l1.228-3.279-17.108-49.728h16.38l7.781,27.756,8.191-27.756h16.426ZM281.519,87.613q0-3.913-1.592-5.756t-5.415-1.843q-4.734,0-6.689,3v35.31H252.489V48.436h15.334V74.372a15.347,15.347,0,0,1,12.559-6.188q8.143,0,12.285,4.823T296.9,87.249v31.078h-15.38V87.613Zm-15.88,68.348v69.892H251.852l-0.774-5.279a14.519,14.519,0,0,1-12.012,6.189,16.593,16.593,0,0,1-13.924-6.735Q220,213.294,220,200.872q0-11.694,5.051-18.429t14.106-6.734a14.139,14.139,0,0,1,11.1,5.187V155.961h15.38ZM243.07,187.54q-7.1,0-7.69,11.466l-0.046,2.821q0,13.106,7.645,13.1a7.548,7.548,0,0,0,7.28-4.277V191.908A7.346,7.346,0,0,0,243.07,187.54Zm-4.232-68.3q-7.917,0-11.694-3.731t-3.777-11.33V79.741h-6.279V69.094h6.279V56.854H238.7v12.24h8.1V79.741h-8.1v22.524q0,2.775,1,3.868t3.958,1.092a22.489,22.489,0,0,0,3.822-.273v10.966A28.317,28.317,0,0,1,238.838,119.237Zm-40.088,102.2q-4.231,5.323-11.83,5.324a17.47,17.47,0,0,1-11.831-4.209,13.4,13.4,0,0,1-4.868-10.58q0-8.007,5.915-12.1t17.2-4.095h4.732v-2.607q0-6.813-5.87-6.812-5.46,0-5.46,5.4H171.4a13.745,13.745,0,0,1,6.074-11.589q6.075-4.454,15.494-4.454t14.879,4.6q5.46,4.6,5.6,12.6v21.8q0.09,6.781,2.093,10.375v0.774H200.207A17.345,17.345,0,0,1,198.75,221.439Zm-0.682-17.473h-4.459q-8.01,0-8.009,7.189a4.386,4.386,0,0,0,1.411,3.39,5.1,5.1,0,0,0,3.595,1.3,8.557,8.557,0,0,0,4.755-1.229,7.707,7.707,0,0,0,2.707-2.775v-7.872Zm-30.487-85.639-8.144-29.212-8.191,29.212H138.278l-11.6-49.233h14.7l4.869,29.713,7.826-29.713H164.76l7.736,29.03,4.959-29.03h14.7l-11.6,49.233H167.581Zm-68.071.91q-10.511,0-16.881-6.3T75.758,95.849l-0.046-2.594a29.059,29.059,0,0,1,2.867-13.127,20.5,20.5,0,0,1,8.236-8.85,24.8,24.8,0,0,1,12.6-3.094q11.057,0,17.427,6.848t6.371,18.633v0.546q0,11.513-6.393,18.269T99.51,119.237Zm8.372-25.982q0-13.241-8.463-13.241-7.69,0-8.327,11.421l-0.046,2.776q0,6.825,2.139,10.01a7.123,7.123,0,0,0,6.325,3.186q8.19,0,8.372-12.6V93.255ZM28.891,77.1v41.225H12.919V52.076H28.891L52.324,93.3V52.076H68.25v66.251H52.37Zm3.049,109.255q-5.46,0-5.46,5.4H11.145a13.747,13.747,0,0,1,6.075-11.589q6.075-4.454,15.493-4.454t14.879,4.6q5.46,4.6,5.6,12.6v21.8q0.091,6.781,2.093,10.375v0.774H39.948a17.326,17.326,0,0,1-1.456-4.414q-4.232,5.323-11.831,5.324a17.468,17.468,0,0,1-11.831-4.209,13.4,13.4,0,0,1-4.869-10.58q0-8.007,5.915-12.1t17.2-4.095h4.732v-2.607Q37.809,186.356,31.939,186.357Zm1.411,17.609q-8.009,0-8.008,7.189a4.387,4.387,0,0,0,1.411,3.39,5.1,5.1,0,0,0,3.595,1.3,8.554,8.554,0,0,0,4.755-1.229,7.7,7.7,0,0,0,2.707-2.775v-7.872H33.35Zm44.5,21.887H62.471V155.961h15.38v69.892Zm24.435-42.909q3.867-7.234,10.784-7.235a14.956,14.956,0,0,1,4.277.546L117.074,190.5l-5.051-.364q-7.234,0-9.282,4.55v31.17H87.406V176.619h14.379Zm28.894-4.073a24.656,24.656,0,0,1,12.74-3.162q10.376,0,16.381,6.439t6.006,17.95v5.961H135.821a11.047,11.047,0,0,0,3.595,6.507,10.694,10.694,0,0,0,7.189,2.366q7.28,0,11.375-5.1l7.008,8.281a19.59,19.59,0,0,1-8.122,6.3,27.458,27.458,0,0,1-11.308,2.344q-11.329,0-18.337-6.758t-7.007-17.586v-1.274a30.229,30.229,0,0,1,2.8-13.332A20.486,20.486,0,0,1,131.18,178.871Zm20.112,17.587v-1.183a7.6,7.6,0,0,0-1.866-5.711,7.428,7.428,0,0,0-5.6-2.024q-6.735,0-8.008,8.918h15.471ZM458.523,178.8a24.811,24.811,0,0,1,12.6-3.094q11.056,0,17.427,6.848t6.371,18.633v0.546q0,11.513-6.393,18.269t-17.314,6.758q-10.511,0-16.881-6.3t-6.871-17.086l-0.046-2.593a29.065,29.065,0,0,1,2.867-13.128A20.5,20.5,0,0,1,458.523,178.8Zm6.37,32.944a7.126,7.126,0,0,0,6.325,3.185q8.19,0,8.373-12.6v-1.547q0-13.242-8.464-13.241-7.69,0-8.327,11.421l-0.045,2.775Q462.755,208.563,464.893,211.747Z" transform="translate(-9.563 -10)"/>
</svg>
