<svg xmlns="http://www.w3.org/2000/svg" width="513.031" height="98.251" viewBox="0 0 513.031 98.251">
  <defs>
    <style>
      .cls-1 {
        fill: #313232;
      }

      .cls-1, .cls-2, .cls-5, .cls-6, .cls-7, .cls-8, .cls-9 {
        fill-rule: evenodd;
      }

      .cls-2, .cls-3 {
        fill: #df0005;
      }

      .cls-4 {
        fill: #ce0509;
      }

      .cls-5 {
        fill: #fff;
      }

      .cls-6 {
        fill: #272828;
      }

      .cls-8 {
        fill: #949494;
      }

      .cls-9 {
        fill: #646464;
      }
    </style>
  </defs>
  <g id="CLOSE">
    <path id="X" class="cls-1" d="M57.295,20.057v1.365H50.83V10.787h6.465v1.365H52.3v3.27h4.53V16.8H52.3v3.255h4.995Zm-12.84-4.89,1.59,0.345a3.821,3.821,0,0,1,2.047,1.08A2.723,2.723,0,0,1,48.8,18.5a2.912,2.912,0,0,1-1.02,2.212,3.769,3.769,0,0,1-2.655.938,3.939,3.939,0,0,1-2.8-.945,3.606,3.606,0,0,1-1.178-2.22l1.41-.45a2.54,2.54,0,0,0,.75,1.628,2.448,2.448,0,0,0,1.8.652,2.474,2.474,0,0,0,1.62-.473,1.515,1.515,0,0,0,.57-1.223,1.494,1.494,0,0,0-.405-1.043,2.163,2.163,0,0,0-1.185-.608l-1.515-.33a3.646,3.646,0,0,1-1.89-1.013,2.643,2.643,0,0,1-.7-1.9,2.925,2.925,0,0,1,1.027-2.22,3.536,3.536,0,0,1,2.483-.945,3.593,3.593,0,0,1,2.5.8,3.428,3.428,0,0,1,1.1,1.845l-1.32.465a2.185,2.185,0,0,0-.675-1.26,2.469,2.469,0,0,0-3.053-.053,1.608,1.608,0,0,0-.578,1.268,1.455,1.455,0,0,0,.352.99A1.832,1.832,0,0,0,44.455,15.167Zm-9.81,6.48A5.309,5.309,0,0,1,29.3,16.1a5.9,5.9,0,0,1,.457-2.355,4.975,4.975,0,0,1,1.207-1.747,5.5,5.5,0,0,1,1.7-1.058,5.375,5.375,0,0,1,3.945,0,5.509,5.509,0,0,1,1.7,1.058,4.981,4.981,0,0,1,1.208,1.747,5.908,5.908,0,0,1,.458,2.355A5.309,5.309,0,0,1,34.645,21.647Zm2.715-8.632a3.894,3.894,0,0,0-5.43,0A4.119,4.119,0,0,0,30.8,16.1a4.144,4.144,0,0,0,1.125,3.09,3.875,3.875,0,0,0,5.43,0,4.144,4.144,0,0,0,1.125-3.09A4.119,4.119,0,0,0,37.36,13.014ZM22.285,10.787h1.47v9.255H28.78v1.38h-6.5V10.787ZM15.64,20.3a3.336,3.336,0,0,0,2.168-.7,3.751,3.751,0,0,0,1.223-1.852l1.3,0.48a4.493,4.493,0,0,1-1.665,2.482,4.892,4.892,0,0,1-3.03.938,5.173,5.173,0,0,1-3.728-1.5A5.369,5.369,0,0,1,10.36,16.1a5.7,5.7,0,0,1,.773-2.985,5.036,5.036,0,0,1,1.957-1.92,5.35,5.35,0,0,1,2.55-.63,4.959,4.959,0,0,1,3.023.9,4.436,4.436,0,0,1,1.657,2.475l-1.365.48a3.213,3.213,0,0,0-1.147-1.86,3.48,3.48,0,0,0-2.168-.645,3.652,3.652,0,0,0-2.67,1.1A4.15,4.15,0,0,0,11.86,16.1a4.176,4.176,0,0,0,1.11,3.09A3.639,3.639,0,0,0,15.64,20.3Zm55.734,0.371-0.747.664L67,17.253l-3.626,4.08-0.748-.664,3.7-4.168-3.7-4.168,0.748-.664L67,15.747l3.626-4.08,0.747,0.664-3.7,4.168Z" transform="translate(-10 -9.938)"/>
    <path id="X_copy" data-name="X copy" class="cls-2" d="M294.3,42.057v1.365H287.83V32.787H294.3v1.365h-5v3.27h4.53V38.8H289.3v3.255h5Zm-12.84-4.89,1.59,0.345a3.819,3.819,0,0,1,2.047,1.08,2.722,2.722,0,0,1,.713,1.9,2.911,2.911,0,0,1-1.02,2.213,3.769,3.769,0,0,1-2.655.938,3.941,3.941,0,0,1-2.8-.945,3.606,3.606,0,0,1-1.177-2.22l1.41-.45a2.541,2.541,0,0,0,.75,1.627,2.448,2.448,0,0,0,1.8.653,2.473,2.473,0,0,0,1.62-.473,1.514,1.514,0,0,0,.57-1.222,1.494,1.494,0,0,0-.405-1.043,2.162,2.162,0,0,0-1.185-.607l-1.515-.33a3.647,3.647,0,0,1-1.89-1.012,2.644,2.644,0,0,1-.7-1.9,2.925,2.925,0,0,1,1.027-2.22,3.538,3.538,0,0,1,2.483-.945,3.591,3.591,0,0,1,2.5.8,3.429,3.429,0,0,1,1.1,1.845l-1.32.465a2.339,2.339,0,0,0-3.728-1.312,1.608,1.608,0,0,0-.577,1.267,1.455,1.455,0,0,0,.352.99A1.835,1.835,0,0,0,281.455,37.167Zm-9.81,6.48a5.308,5.308,0,0,1-5.34-5.55,5.906,5.906,0,0,1,.457-2.355,4.979,4.979,0,0,1,1.208-1.748,5.5,5.5,0,0,1,1.7-1.057,5.375,5.375,0,0,1,3.945,0,5.509,5.509,0,0,1,1.7,1.057,4.977,4.977,0,0,1,1.207,1.748,5.907,5.907,0,0,1,.458,2.355A5.31,5.31,0,0,1,271.645,43.647Zm2.715-8.632a3.894,3.894,0,0,0-5.43,0,4.119,4.119,0,0,0-1.125,3.082,4.144,4.144,0,0,0,1.125,3.09,3.875,3.875,0,0,0,5.43,0,4.144,4.144,0,0,0,1.125-3.09A4.119,4.119,0,0,0,274.36,35.014Zm-15.075-2.227h1.47v9.255h5.025v1.38h-6.495V32.787ZM252.64,42.3a3.335,3.335,0,0,0,2.167-.7,3.751,3.751,0,0,0,1.223-1.853l1.305,0.48a4.492,4.492,0,0,1-1.665,2.483,4.892,4.892,0,0,1-3.03.938,5.174,5.174,0,0,1-3.728-1.5,5.369,5.369,0,0,1-1.552-4.05,5.7,5.7,0,0,1,.772-2.985,5.038,5.038,0,0,1,1.958-1.92,5.35,5.35,0,0,1,2.55-.63,4.957,4.957,0,0,1,3.022.9,4.435,4.435,0,0,1,1.658,2.475l-1.365.48a3.211,3.211,0,0,0-1.148-1.86,3.478,3.478,0,0,0-2.167-.645,3.653,3.653,0,0,0-2.67,1.1,4.151,4.151,0,0,0-1.11,3.082,4.176,4.176,0,0,0,1.11,3.09A3.64,3.64,0,0,0,252.64,42.3Zm55.734,0.371-0.748.664L304,39.253l-3.626,4.08-0.748-.664,3.705-4.168-3.705-4.168,0.748-.664L304,37.747l3.626-4.08,0.748,0.664L304.669,38.5Z" transform="translate(-10 -9.938)"/>
  </g>
  <g id="BUTTON">
    <rect id="도형" class="cls-3" y="22.063" width="227" height="51"/>
    <rect id="어둡게" class="cls-4" x="170" y="22.063" width="57" height="51"/>
    <path id="화살표" class="cls-5" d="M206.449,66.454L203.568,63.6l6.2-6.139-6.2-6.139,2.881-2.852,9.081,8.991Z" transform="translate(-10 -9.938)"/>
    <path id="PROJECT_VIEW" data-name="PROJECT VIEW" class="cls-5" d="M144.885,62.4H143.37L140.6,53.777,137.85,62.4h-1.47l-3.075-10.635h1.515l2.34,8.325,2.67-8.325h1.545l2.73,8.415,2.3-8.415h1.515Zm-19.17-10.635h6.465v1.365h-5V56.4h4.53v1.38h-4.53v3.255h5V62.4h-6.465V51.767Zm-4.2,0h1.5V62.4h-1.5V51.767ZM114.465,62.4L110.46,51.767h1.56l3.21,8.745,3.24-8.745h1.545L115.92,62.4h-1.455Zm-11.61,0h-1.47v-9.27H97.83V51.767h8.58v1.365h-3.555V62.4ZM92.46,61.277a3.336,3.336,0,0,0,2.168-.7,3.75,3.75,0,0,0,1.222-1.852l1.3,0.48a4.492,4.492,0,0,1-1.665,2.483,4.892,4.892,0,0,1-3.03.938,5.174,5.174,0,0,1-3.728-1.5,5.369,5.369,0,0,1-1.552-4.05,5.7,5.7,0,0,1,.772-2.985,5.037,5.037,0,0,1,1.958-1.92,5.35,5.35,0,0,1,2.55-.63,4.959,4.959,0,0,1,3.022.9,4.435,4.435,0,0,1,1.657,2.475l-1.365.48a3.211,3.211,0,0,0-1.147-1.86,3.48,3.48,0,0,0-2.168-.645,3.652,3.652,0,0,0-2.67,1.1,4.846,4.846,0,0,0,0,6.172A3.64,3.64,0,0,0,92.46,61.277Zm-13.245-9.51H85.68v1.365h-5V56.4h4.53v1.38h-4.53v3.255h5V62.4H79.215V51.767ZM73.47,62.627a3.208,3.208,0,0,1-2.43-.922,3.414,3.414,0,0,1-.885-2.468v-0.69l1.47-.33v1a2.133,2.133,0,0,0,.487,1.538,1.783,1.783,0,0,0,1.343.5,1.651,1.651,0,0,0,1.275-.5,2.033,2.033,0,0,0,.465-1.432v-7.56h1.47v7.455a3.5,3.5,0,0,1-.877,2.422A2.957,2.957,0,0,1,73.47,62.627Zm-9.63,0a5.309,5.309,0,0,1-5.34-5.55,5.9,5.9,0,0,1,.458-2.355,4.976,4.976,0,0,1,1.207-1.748,5.5,5.5,0,0,1,1.7-1.057,5.375,5.375,0,0,1,3.945,0,5.5,5.5,0,0,1,1.7,1.057,4.978,4.978,0,0,1,1.207,1.748,5.906,5.906,0,0,1,.458,2.355A5.309,5.309,0,0,1,63.84,62.627Zm2.715-8.632a3.894,3.894,0,0,0-5.43,0,4.8,4.8,0,0,0,0,6.172,3.875,3.875,0,0,0,5.43,0A4.8,4.8,0,0,0,66.555,53.994Zm-11.91,3.953L57.181,62.4h-1.71l-2.43-4.35h-1.59V62.4H49.966V51.767h4.005a3.165,3.165,0,0,1,2.362.907,3.092,3.092,0,0,1,.892,2.258,2.95,2.95,0,0,1-.69,1.98A3.154,3.154,0,0,1,54.646,57.947Zm0.517-4.365a2.1,2.1,0,0,0-1.462-.495h-2.25v3.645H53.7a2.124,2.124,0,0,0,1.455-.487,1.659,1.659,0,0,0,.555-1.312A1.729,1.729,0,0,0,55.163,53.582Zm-10.282,4.47h-2.4V62.4h-1.47V51.767h3.87a3.236,3.236,0,0,1,2.37.9,3.028,3.028,0,0,1,.915,2.25,3,3,0,0,1-.915,2.25A3.266,3.266,0,0,1,44.881,58.052Zm1.238-4.47a2.166,2.166,0,0,0-1.508-.495h-2.13v3.645h2.13a2.193,2.193,0,0,0,1.5-.487,1.659,1.659,0,0,0,.555-1.312A1.729,1.729,0,0,0,46.118,53.582Z" transform="translate(-10 -9.938)"/>
  </g>
  <path id="technique" class="cls-6" d="M361,19V14l4,2.5Zm-15.563-7.97h6.68v1.41h-5.161v3.379h4.681V17.25h-4.681v3.364h5.161v1.41h-6.68V11.035Zm-6.588,11.222a3.976,3.976,0,0,1-2.844-1.046,3.843,3.843,0,0,1-1.108-2.937V11.035h1.5v7.192a2.715,2.715,0,0,0,.644,1.938,2.72,2.72,0,0,0,3.6,0,2.735,2.735,0,0,0,.636-1.937V11.035H342.8v7.238a3.847,3.847,0,0,1-1.108,2.937A3.977,3.977,0,0,1,338.849,22.257Zm-6.153-.233-1.038.915-1.333-1.473a5.349,5.349,0,0,1-2.883.791,5.485,5.485,0,0,1-5.518-5.735,6.106,6.106,0,0,1,.472-2.433,5.139,5.139,0,0,1,1.248-1.806A5.7,5.7,0,0,1,325.4,11.19a5.556,5.556,0,0,1,4.077,0,5.7,5.7,0,0,1,1.759,1.093,5.139,5.139,0,0,1,1.248,1.806,6.106,6.106,0,0,1,.473,2.433,5.659,5.659,0,0,1-1.55,4.061Zm-2.449-8.688a4.024,4.024,0,0,0-5.611,0,4.256,4.256,0,0,0-1.162,3.185,4.282,4.282,0,0,0,1.162,3.193,4.036,4.036,0,0,0,4.728.666l-1.907-2.139,1.054-.915,1.922,2.17a4.507,4.507,0,0,0,.977-2.976A4.257,4.257,0,0,0,330.247,13.337Zm-11.966-2.3h1.55v10.99h-1.55V11.035Zm-10.307,2.031v8.959h-1.519V11.035h2.03l5.487,8.432V11.035h1.519v10.99H313.91Zm-5.828,4.076h-5.611v4.883h-1.519V11.035h1.519v4.7h5.611v-4.7h1.519v10.99h-1.519V17.142Zm-14,3.72a3.445,3.445,0,0,0,2.239-.721,3.877,3.877,0,0,0,1.264-1.914l1.348,0.5a4.642,4.642,0,0,1-1.72,2.565,5.056,5.056,0,0,1-3.131.969,5.344,5.344,0,0,1-3.852-1.55,5.546,5.546,0,0,1-1.6-4.185,5.88,5.88,0,0,1,.8-3.084,5.2,5.2,0,0,1,2.023-1.984,5.526,5.526,0,0,1,2.635-.651,5.125,5.125,0,0,1,3.123.93,4.585,4.585,0,0,1,1.713,2.557l-1.411.5a3.319,3.319,0,0,0-1.186-1.922,3.594,3.594,0,0,0-2.239-.666,3.773,3.773,0,0,0-2.759,1.139,4.288,4.288,0,0,0-1.147,3.185,4.314,4.314,0,0,0,1.147,3.193A3.759,3.759,0,0,0,288.15,20.862Zm-13.687-9.827h6.68v1.41h-5.161v3.379h4.681V17.25h-4.681v3.364h5.161v1.41h-6.68V11.035Zm-5.223,10.99h-1.519V12.445h-3.674v-1.41h8.866v1.41H269.24v9.579Z" transform="translate(-10 -9.938)"/>
  <path id="PROJECT_VIEW-2" data-name="PROJECT VIEW" class="cls-7" d="M298.266,103.426h10.771v1.642a0.856,0.856,0,0,0,1.461.606l3.07-3.069a0.856,0.856,0,0,0,0-1.21l-3.07-3.069a0.856,0.856,0,0,0-1.461.605v1.642H298.266v2.852Zm-15.454,3.713h-1.566l-2.867-8.913-2.837,8.913h-1.519l-3.177-10.99h1.565l2.418,8.6,2.759-8.6h1.6l2.821,8.7,2.371-8.7h1.566ZM263,96.149h6.68v1.41h-5.161v3.379H269.2v1.426h-4.681v3.363h5.161v1.411H263V96.149Zm-4.34,0h1.55v10.99h-1.55V96.149Zm-7.285,10.99-4.139-10.99h1.612l3.317,9.037,3.348-9.037h1.6l-4.232,10.99h-1.5Zm-12,0h-1.519V97.56h-3.673v-1.41h8.866v1.41h-3.674v9.579Zm-10.742-1.163a3.45,3.45,0,0,0,2.24-.72,3.879,3.879,0,0,0,1.263-1.915l1.349,0.5a4.645,4.645,0,0,1-1.721,2.566,5.052,5.052,0,0,1-3.131.968,5.341,5.341,0,0,1-3.851-1.55,5.546,5.546,0,0,1-1.605-4.185,5.88,5.88,0,0,1,.8-3.084A5.2,5.2,0,0,1,226,96.568a5.531,5.531,0,0,1,2.635-.651,5.128,5.128,0,0,1,3.124.93,4.579,4.579,0,0,1,1.712,2.557l-1.41.5a3.319,3.319,0,0,0-1.186-1.922,3.6,3.6,0,0,0-2.24-.666,3.776,3.776,0,0,0-2.759,1.139,5.006,5.006,0,0,0,0,6.378A3.762,3.762,0,0,0,228.639,105.976Zm-13.686-9.827h6.68v1.41h-5.161v3.379h4.681v1.426h-4.681v3.363h5.161v1.411h-6.68V96.149Zm-5.937,11.222a3.314,3.314,0,0,1-2.511-.953,3.53,3.53,0,0,1-.914-2.55v-0.713l1.519-.341v1.039a2.2,2.2,0,0,0,.5,1.589,1.842,1.842,0,0,0,1.387.519,1.705,1.705,0,0,0,1.317-.519,2.1,2.1,0,0,0,.481-1.481V96.149h1.519v7.7a3.619,3.619,0,0,1-.907,2.5A3.055,3.055,0,0,1,209.016,107.371Zm-9.95,0a5.484,5.484,0,0,1-5.518-5.735,6.106,6.106,0,0,1,.472-2.433,5.138,5.138,0,0,1,1.248-1.806,5.693,5.693,0,0,1,1.759-1.093,5.556,5.556,0,0,1,4.077,0,5.693,5.693,0,0,1,1.759,1.093,5.138,5.138,0,0,1,1.248,1.806,6.106,6.106,0,0,1,.473,2.433A5.485,5.485,0,0,1,199.066,107.371Zm2.805-8.92a4.024,4.024,0,0,0-5.611,0,4.957,4.957,0,0,0,0,6.378,4,4,0,0,0,5.611,0A4.953,4.953,0,0,0,201.871,98.451Zm-12.307,4.084,2.62,4.6h-1.767l-2.511-4.495h-1.643v4.495h-1.535V96.149h4.139a3.271,3.271,0,0,1,2.441.938,3.194,3.194,0,0,1,.922,2.333,3.049,3.049,0,0,1-.713,2.046A3.256,3.256,0,0,1,189.564,102.535Zm0.535-4.51a2.167,2.167,0,0,0-1.511-.511h-2.325v3.767h2.325a2.192,2.192,0,0,0,1.5-.5,1.715,1.715,0,0,0,.574-1.356A1.787,1.787,0,0,0,190.1,98.025Zm-10.625,4.619h-2.48v4.495h-1.519V96.149h4a3.345,3.345,0,0,1,2.449.93,3.129,3.129,0,0,1,.945,2.325,3.094,3.094,0,0,1-.945,2.325A3.376,3.376,0,0,1,179.474,102.644Zm1.279-4.619a2.24,2.24,0,0,0-1.558-.511h-2.2v3.767h2.2a2.266,2.266,0,0,0,1.55-.5,1.715,1.715,0,0,0,.573-1.356A1.786,1.786,0,0,0,180.753,98.025Z" transform="translate(-10 -9.938)"/>
  <path id="외부링크" class="cls-7" d="M164.862,98.552l-0.992-1-6.764,6.85a0.662,0.662,0,0,1-.943,0l-0.629-.637a0.681,0.681,0,0,1,0-.954l6.765-6.849-0.992-1a0.677,0.677,0,0,1,.471-1.152h3.555a0.671,0.671,0,0,1,.667.675v3.6A0.666,0.666,0,0,1,164.862,98.552Zm-5.28-1.35a0.659,0.659,0,0,1-.471.2h-7.333v9h8.889v-4.057a0.679,0.679,0,0,1,.195-0.477l0.444-.45a0.666,0.666,0,0,1,1.138.477v4.957a1.341,1.341,0,0,1-1.333,1.35h-9.778A1.341,1.341,0,0,1,150,106.85v-9.9a1.342,1.342,0,0,1,1.333-1.35h8.223a0.676,0.676,0,0,1,.471,1.152Zm-26.235,9.937h-1.519V97.56h-3.674v-1.41h8.866v1.41h-3.673v9.579Zm-10.742-1.163a3.45,3.45,0,0,0,2.24-.72,3.879,3.879,0,0,0,1.263-1.915l1.349,0.5a4.645,4.645,0,0,1-1.721,2.566,5.054,5.054,0,0,1-3.131.968,5.345,5.345,0,0,1-3.852-1.55,5.549,5.549,0,0,1-1.6-4.185,5.889,5.889,0,0,1,.8-3.084,5.213,5.213,0,0,1,2.023-1.984,5.529,5.529,0,0,1,2.635-.651,5.123,5.123,0,0,1,3.123.93,4.58,4.58,0,0,1,1.713,2.557l-1.41.5a3.319,3.319,0,0,0-1.186-1.922,3.6,3.6,0,0,0-2.24-.666,3.774,3.774,0,0,0-2.759,1.139,5.006,5.006,0,0,0,0,6.378A3.76,3.76,0,0,0,122.605,105.976Zm-13.686-9.827h6.68v1.41h-5.161v3.379h4.681v1.426h-4.681v3.363H115.6v1.411h-6.68V96.149Zm-5.937,11.222a3.314,3.314,0,0,1-2.511-.953,3.528,3.528,0,0,1-.914-2.55v-0.713l1.519-.341v1.039a2.208,2.208,0,0,0,.5,1.589,1.845,1.845,0,0,0,1.388.519,1.705,1.705,0,0,0,1.317-.519,2.1,2.1,0,0,0,.481-1.481V96.149h1.519v7.7a3.624,3.624,0,0,1-.907,2.5A3.056,3.056,0,0,1,102.982,107.371Zm-9.951,0a5.485,5.485,0,0,1-5.518-5.735,6.1,6.1,0,0,1,.473-2.433A5.141,5.141,0,0,1,89.234,97.4,5.686,5.686,0,0,1,90.993,96.3a5.554,5.554,0,0,1,4.076,0A5.691,5.691,0,0,1,96.829,97.4,5.148,5.148,0,0,1,98.077,99.2a6.1,6.1,0,0,1,.473,2.433A5.485,5.485,0,0,1,93.031,107.371Zm2.805-8.92a4.024,4.024,0,0,0-5.611,0,4.955,4.955,0,0,0,0,6.378,4,4,0,0,0,5.611,0A4.955,4.955,0,0,0,95.837,98.451ZM83.53,102.535l2.62,4.6H84.382l-2.511-4.495H80.228v4.495H78.694V96.149h4.139a3.271,3.271,0,0,1,2.441.938A3.2,3.2,0,0,1,86.2,99.42a3.048,3.048,0,0,1-.713,2.046A3.258,3.258,0,0,1,83.53,102.535Zm0.535-4.51a2.168,2.168,0,0,0-1.511-.511H80.228v3.767h2.325a2.195,2.195,0,0,0,1.5-.5,1.714,1.714,0,0,0,.573-1.356A1.786,1.786,0,0,0,84.065,98.025ZM73.44,102.644H70.96v4.495H69.441V96.149h4a3.344,3.344,0,0,1,2.449.93,3.128,3.128,0,0,1,.945,2.325,3.094,3.094,0,0,1-.945,2.325A3.375,3.375,0,0,1,73.44,102.644Zm1.279-4.619a2.238,2.238,0,0,0-1.558-.511h-2.2v3.767h2.2a2.265,2.265,0,0,0,1.55-.5,1.714,1.714,0,0,0,.573-1.356A1.786,1.786,0,0,0,74.718,98.025Zm-13.462,4.231H55.646v4.883H54.127V96.149h1.519v4.7h5.611v-4.7h1.519v10.99H61.257v-4.883Zm-14,3.72a3.45,3.45,0,0,0,2.24-.72,3.879,3.879,0,0,0,1.263-1.915l1.349,0.5a4.643,4.643,0,0,1-1.721,2.566,5.054,5.054,0,0,1-3.131.968,5.343,5.343,0,0,1-3.852-1.55,5.548,5.548,0,0,1-1.6-4.185,5.886,5.886,0,0,1,.8-3.084,5.2,5.2,0,0,1,2.023-1.984,5.528,5.528,0,0,1,2.635-.651,5.124,5.124,0,0,1,3.123.93A4.583,4.583,0,0,1,52.1,99.4l-1.41.5A3.319,3.319,0,0,0,49.5,97.978a3.6,3.6,0,0,0-2.24-.666A3.774,3.774,0,0,0,44.5,98.451a5.006,5.006,0,0,0,0,6.378A3.76,3.76,0,0,0,47.26,105.976Zm-15.066-7.8v8.959H30.676V96.149h2.031l5.487,8.432V96.149h1.519v10.99H38.131Zm-8.106,9.191a3.973,3.973,0,0,1-2.844-1.046,3.842,3.842,0,0,1-1.108-2.937V96.149h1.5v7.192a2.717,2.717,0,0,0,.643,1.938,2.361,2.361,0,0,0,1.806.682,2.336,2.336,0,0,0,1.8-.682,2.739,2.739,0,0,0,.636-1.938V96.149h1.519v7.239a3.843,3.843,0,0,1-1.108,2.937A3.974,3.974,0,0,1,24.088,107.371Zm-8.556-4.836,2.62,4.6H16.385l-2.511-4.495H12.231v4.495H10.7V96.149h4.138a3.27,3.27,0,0,1,2.441.938A3.2,3.2,0,0,1,18.2,99.42a3.049,3.049,0,0,1-.713,2.046A3.258,3.258,0,0,1,15.532,102.535Zm0.535-4.51a2.168,2.168,0,0,0-1.511-.511H12.231v3.767h2.325a2.195,2.195,0,0,0,1.5-.5,1.715,1.715,0,0,0,.573-1.356A1.786,1.786,0,0,0,16.067,98.025Z" transform="translate(-10 -9.938)"/>
  <path id="PROJECT" class="cls-6" d="M250,19V14l4,2.5Zm-10.807,3.02h-1.519V12.445H234v-1.41h8.866v1.41h-3.674v9.579Zm-10.741-1.163a3.445,3.445,0,0,0,2.239-.721,3.877,3.877,0,0,0,1.264-1.914l1.348,0.5a4.642,4.642,0,0,1-1.72,2.565,5.056,5.056,0,0,1-3.131.969,5.344,5.344,0,0,1-3.852-1.55,5.546,5.546,0,0,1-1.6-4.185,5.889,5.889,0,0,1,.8-3.084,5.2,5.2,0,0,1,2.023-1.984,5.526,5.526,0,0,1,2.635-.651,5.123,5.123,0,0,1,3.123.93,4.585,4.585,0,0,1,1.713,2.557l-1.411.5a3.319,3.319,0,0,0-1.186-1.922,3.594,3.594,0,0,0-2.239-.666,3.773,3.773,0,0,0-2.759,1.139,4.288,4.288,0,0,0-1.147,3.185,4.314,4.314,0,0,0,1.147,3.193A3.759,3.759,0,0,0,228.452,20.862Zm-13.687-9.827h6.681v1.41h-5.162v3.379h4.681V17.25h-4.681v3.364h5.162v1.41h-6.681V11.035Zm-5.936,11.222a3.313,3.313,0,0,1-2.511-.953,3.527,3.527,0,0,1-.915-2.55V18.041l1.519-.341v1.038a2.2,2.2,0,0,0,.5,1.589,1.842,1.842,0,0,0,1.387.519,1.708,1.708,0,0,0,1.318-.519,2.1,2.1,0,0,0,.48-1.48V11.035h1.519v7.7a3.619,3.619,0,0,1-.907,2.5A3.053,3.053,0,0,1,208.829,22.257Zm-9.951,0a5.487,5.487,0,0,1-5.518-5.735,6.089,6.089,0,0,1,.473-2.433,5.137,5.137,0,0,1,1.247-1.806,5.688,5.688,0,0,1,1.76-1.093,5.553,5.553,0,0,1,4.076,0,5.7,5.7,0,0,1,1.759,1.093,5.139,5.139,0,0,1,1.248,1.806,6.106,6.106,0,0,1,.473,2.433A5.487,5.487,0,0,1,198.878,22.257Zm2.805-8.92a4.024,4.024,0,0,0-5.611,0,4.256,4.256,0,0,0-1.162,3.185,4.282,4.282,0,0,0,1.162,3.193,4,4,0,0,0,5.611,0,4.283,4.283,0,0,0,1.163-3.193A4.257,4.257,0,0,0,201.683,13.337Zm-12.307,4.084,2.62,4.6h-1.767l-2.511-4.5h-1.643v4.5H184.54V11.035h4.139a3.271,3.271,0,0,1,2.441.938,3.194,3.194,0,0,1,.922,2.333,3.049,3.049,0,0,1-.713,2.046A3.256,3.256,0,0,1,189.376,17.421Zm0.535-4.51A2.167,2.167,0,0,0,188.4,12.4h-2.325v3.767H188.4a2.192,2.192,0,0,0,1.5-.5,1.715,1.715,0,0,0,.574-1.356A1.787,1.787,0,0,0,189.911,12.91Zm-10.625,4.619h-2.48v4.5h-1.519V11.035h4a3.344,3.344,0,0,1,2.449.93,3.129,3.129,0,0,1,.946,2.325,3.1,3.1,0,0,1-.946,2.325A3.375,3.375,0,0,1,179.286,17.529Zm1.279-4.619a2.24,2.24,0,0,0-1.558-.511h-2.2v3.767h2.2a2.264,2.264,0,0,0,1.55-.5,1.715,1.715,0,0,0,.574-1.356A1.787,1.787,0,0,0,180.565,12.91Z" transform="translate(-10 -9.938)"/>
  <path id="summary." class="cls-2" d="M163.786,21.722a1.381,1.381,0,0,1-1.016.411,1.411,1.411,0,1,1,0-2.821,1.382,1.382,0,0,1,1.016.411A1.424,1.424,0,0,1,163.786,21.722Zm-5.433.3h-2.139V17.405l-3.829-6.37H154.9l2.465,4.355,2.464-4.355h2.4l-3.875,6.371v4.619Zm-8.975,0-2.154-4.232h-1.116v4.232h-2.155V11.035h4.294a3.437,3.437,0,0,1,2.542.961,3.282,3.282,0,0,1,.961,2.418,3.113,3.113,0,0,1-2.341,3.115l2.356,4.5h-2.387Zm0.186-7.6a1.449,1.449,0,0,0-.449-1.124,1.82,1.82,0,0,0-1.271-.411h-1.736v3.053h1.736a1.818,1.818,0,0,0,1.271-.411A1.429,1.429,0,0,0,149.564,14.429ZM139.3,19.513h-4.464l-0.914,2.511h-2.263l4.216-10.989h2.48l4.185,10.99h-2.325Zm-2.232-6.107-1.519,4.154h3.038Zm-8.927.915-3.162,7.7H123.2l-3.162-7.642v7.642h-2.046V11.035h2.821l3.3,7.936,3.224-7.936h2.914v10.99h-2.108v-7.7Zm-14.772,0-3.162,7.7h-1.782l-3.162-7.642v7.642H103.22V11.035h2.821l3.3,7.936,3.224-7.936h2.914v10.99h-2.108v-7.7ZM96.586,22.272a4.3,4.3,0,0,1-3.022-1.093,3.921,3.921,0,0,1-1.194-3.046v-7.1h2.139v6.944a2.251,2.251,0,0,0,.55,1.635,2.03,2.03,0,0,0,1.527.566,2.051,2.051,0,0,0,1.542-.566,2.252,2.252,0,0,0,.55-1.635V11.035h2.139v7.1a3.924,3.924,0,0,1-1.193,3.046A4.325,4.325,0,0,1,96.586,22.272Zm-8.959-6.65a3.945,3.945,0,0,1,2.263,1.17,2.992,2.992,0,0,1,.806,2.069,3.17,3.17,0,0,1-1.077,2.379,4.043,4.043,0,0,1-2.891,1.015,5.37,5.37,0,0,1-1.875-.31,3.623,3.623,0,0,1-1.349-.829,4.252,4.252,0,0,1-.8-1.1,3.473,3.473,0,0,1-.349-1.2l1.984-.527a2.18,2.18,0,0,0,.682,1.465,2.377,2.377,0,0,0,1.721.6,2.062,2.062,0,0,0,1.318-.372A1.19,1.19,0,0,0,88.526,19a1.133,1.133,0,0,0-.349-0.829,1.857,1.857,0,0,0-.984-0.473l-1.534-.31A3.934,3.934,0,0,1,83.551,16.3a2.858,2.858,0,0,1-.775-2.054A3.137,3.137,0,0,1,83.907,11.8a4.456,4.456,0,0,1,5.448-.139,3.636,3.636,0,0,1,1.186,1.992l-1.922.589a2.088,2.088,0,0,0-.589-1.085,1.918,1.918,0,0,0-1.41-.465,1.842,1.842,0,0,0-1.24.411,1.243,1.243,0,0,0,.713,2.224Z" transform="translate(-10 -9.938)"/>
  <path class="cls-8" d="M444,28.919H374.984V26.891H439.2l-15.2-15.509L425.4,9.948Z" transform="translate(-10 -9.938)"/>
  <path id="Shape_1_copy" data-name="Shape 1 copy" class="cls-8" d="M454.005,28.919h69.011V26.891H458.805l15.2-15.509L472.6,9.948Z" transform="translate(-10 -9.938)"/>
  <path class="cls-9" d="M278,55.42L276.578,54,262.5,68.082,248.419,54,247,55.42,261.08,69.5,247,83.579,248.419,85,262.5,70.917,276.578,85,278,83.579,263.916,69.5Z" transform="translate(-10 -9.938)"/>
  <path id="Shape_2_copy" data-name="Shape 2 copy" class="cls-2" d="M319,55.42L317.578,54,303.5,68.082,289.419,54,288,55.42,302.08,69.5,288,83.579,289.419,85,303.5,70.917,317.578,85,319,83.579,304.916,69.5Z" transform="translate(-10 -9.938)"/>
</svg>
