<svg xmlns="http://www.w3.org/2000/svg" width="131.531" height="95" viewBox="0 0 131.531 95">
  <defs>
    <style>
      .cls-1, .cls-2 {
        fill-rule: evenodd;
      }

      .cls-2 {
        fill: #fff;
      }
    </style>
  </defs>
  <path class="cls-1" d="M16.025,27.294a2.561,2.561,0,1,1-2.561-2.561A2.561,2.561,0,0,1,16.025,27.294Zm6.659,2.561H19.611A8.717,8.717,0,0,0,10.9,21.147V18.074A11.794,11.794,0,0,1,22.684,29.855Zm7.171,0H26.781A15.9,15.9,0,0,0,10.9,13.977V10.9A18.972,18.972,0,0,1,29.855,29.855Z" transform="translate(-10 -10)"/>
  <path class="cls-1" d="M62.5,15.1a1.025,1.025,0,1,0,1,1.024A1.012,1.012,0,0,0,62.5,15.1ZM63,13.564H58.5L58,12.291A2,2,0,0,0,56.146,11H48.854A2,2,0,0,0,47,12.291l-0.5,1.273H42a2.025,2.025,0,0,0-2,2.049V27.906a2.025,2.025,0,0,0,2,2.049H63a2.025,2.025,0,0,0,2-2.049V15.613A2.025,2.025,0,0,0,63,13.564ZM52.5,27.394a6.148,6.148,0,1,1,6-6.146A6.081,6.081,0,0,1,52.5,27.394Zm10-10.244a1.025,1.025,0,1,1,1-1.024A1.012,1.012,0,0,1,62.5,17.15Zm-10,0a4.1,4.1,0,1,0,4,4.1A4.054,4.054,0,0,0,52.5,17.15Z" transform="translate(-10 -10)"/>
  <path class="cls-2" d="M82.758,22.874A1.507,1.507,0,0,1,81.084,21.2v-4h3.246V14.3H81.1V10H78.548a0.136,0.136,0,0,0-.125.127A5.211,5.211,0,0,1,75,14.706V17.2h2.008v4.262c0,1.9,1.188,4.605,4.977,4.542a4.7,4.7,0,0,0,3.013-1l-0.837-2.426a4.221,4.221,0,0,1-1.4.293h0Z" transform="translate(-10 -10)"/>
  <path class="cls-2" d="M97.124,12.849a0.683,0.683,0,0,0-.227-0.577l-1.68-1.988v-0.3h5.224l4.039,8.686,3.551-8.686h4.981v0.3l-1.438,1.352a0.408,0.408,0,0,0-.16.395v9.94a0.408,0.408,0,0,0,.16.395l1.405,1.352v0.3H105.91v-0.3l1.456-1.385a0.4,0.4,0,0,0,.142-0.395V13.9l-4.05,10.082H102.91L98.2,13.9v6.757a0.909,0.909,0,0,0,.261.775l1.893,2.251v0.3H94.989V23.691l1.893-2.255a0.879,0.879,0,0,0,.242-0.775V12.849Z" transform="translate(-10 -10)"/>
  <path class="cls-2" d="M132.517,14.9a4.617,4.617,0,1,0,4.616,4.617A4.609,4.609,0,0,0,132.517,14.9Zm0,7.619a3,3,0,1,1,3-3,3.007,3.007,0,0,1-3,3h0Zm5.881-7.807a1.077,1.077,0,1,1-1.076-1.077A1.074,1.074,0,0,1,138.4,14.709Zm3.058,1.093A5.331,5.331,0,0,0,140,12.029a5.361,5.361,0,0,0-3.772-1.455c-1.486-.084-5.942-0.084-7.428,0a5.354,5.354,0,0,0-3.772,1.451,5.349,5.349,0,0,0-1.455,3.773c-0.084,1.487-.084,5.943,0,7.43A5.331,5.331,0,0,0,125.029,27a5.368,5.368,0,0,0,3.772,1.455c1.486,0.084,5.942.084,7.428,0a4.988,4.988,0,0,0,5.227-5.228c0.084-1.487.084-5.939,0-7.426h0Zm-1.921,9.021a3.038,3.038,0,0,1-1.711,1.712c-1.185.47-4,.362-5.307,0.362s-4.126.1-5.307-.362a3.038,3.038,0,0,1-1.711-1.712c-0.47-1.185-.362-4-0.362-5.308s-0.1-4.127.362-5.308A3.038,3.038,0,0,1,127.21,12.5c1.185-.47,4-0.362,5.307-0.362s4.126-.1,5.307.362a3.038,3.038,0,0,1,1.711,1.712c0.47,1.185.362,4,.362,5.308S140.005,23.642,139.535,24.823Z" transform="translate(-10 -10)"/>
  <path class="cls-2" d="M42.493,55.815A16.671,16.671,0,1,0,59.16,72.486,16.642,16.642,0,0,0,42.493,55.815Zm0,27.509A10.838,10.838,0,1,1,53.329,72.486,10.857,10.857,0,0,1,42.493,83.324h0ZM63.729,55.133a3.888,3.888,0,1,1-3.888-3.888A3.879,3.879,0,0,1,63.729,55.133ZM74.768,59.08c-0.247-5.209-1.436-9.822-5.251-13.624S61.1,40.465,55.9,40.2c-5.367-.3-21.454-0.3-26.821,0-5.193.247-9.806,1.436-13.621,5.238s-4.99,8.415-5.251,13.624c-0.3,5.368-.3,21.458,0,26.827,0.247,5.209,1.436,9.823,5.251,13.624s8.413,4.991,13.621,5.252c5.367,0.3,21.454.3,26.821,0,5.208-.247,9.82-1.436,13.621-5.252s4.99-8.415,5.251-13.624c0.3-5.368.3-21.444,0-26.812h0ZM67.834,91.652a10.971,10.971,0,0,1-6.179,6.181c-4.279,1.7-14.433,1.306-19.162,1.306s-14.9.377-19.162-1.306a10.971,10.971,0,0,1-6.179-6.181c-1.7-4.28-1.306-14.436-1.306-19.166s-0.377-14.9,1.306-19.166a10.971,10.971,0,0,1,6.179-6.181c4.279-1.7,14.433-1.306,19.162-1.306s14.9-.377,19.162,1.306a10.971,10.971,0,0,1,6.179,6.181c1.7,4.28,1.305,14.436,1.305,19.166S69.532,87.386,67.834,91.652Z" transform="translate(-10 -10)"/>
</svg>
